<svg width="24" height="24" viewBox="0 0 24 24" xmlns="http://www.w3.org/2000/svg">
  <path d="M4.99995 16.28C4.81995 16.59 4.61995 16.93 4.38995 17.28C4.24342 17.5791 3.98445 17.808 3.66963 17.9167C3.35482 18.0254 3.00978 18.005 2.70995 17.86H2.63995C2.50566 17.7868 2.38716 17.6878 2.29128 17.5686C2.1954 17.4495 2.12403 17.3125 2.08128 17.1657C2.03852 17.0188 2.02523 16.865 2.04217 16.713C2.0591 16.561 2.10593 16.4138 2.17995 16.28L2.24995 16.16C2.97995 14.91 3.64995 13.69 4.38995 12.47C4.45672 12.3258 4.55242 12.1968 4.67111 12.0911C4.78979 11.9854 4.92893 11.9052 5.0799 11.8555C5.23086 11.8058 5.39043 11.7877 5.5487 11.8022C5.70697 11.8167 5.86056 11.8636 5.99995 11.94C6.26275 12.0583 6.4752 12.2657 6.59967 12.5256C6.72413 12.7855 6.75257 13.0811 6.67995 13.36C6.6388 13.7156 6.73541 14.0734 6.94995 14.36C8.35247 15.5778 10.1475 16.2484 12.005 16.2484C13.8624 16.2484 15.6574 15.5778 17.0599 14.36C17.3399 14.13 17.17 13.78 17.34 13.36C17.4271 12.8648 17.633 12.3982 17.94 12C18.1373 11.8343 18.3909 11.7512 18.648 11.768C18.9051 11.7848 19.1458 11.9001 19.32 12.09L19.43 12.24C20.25 13.57 21.04 14.91 21.78 16.32C21.9262 16.5566 21.9736 16.8413 21.9119 17.1126C21.8501 17.3838 21.6842 17.62 21.45 17.77L21.28 17.85C21.0276 18.0185 20.7189 18.0805 20.4211 18.0225C20.1233 17.9644 19.8605 17.791 19.69 17.54C19.41 17.17 19.18 16.75 18.9 16.31C16.9175 17.8382 14.502 18.6993 12 18.77C9.46196 18.7014 7.01112 17.8296 4.99995 16.28ZM15.7299 9C15.2481 8.99474 14.7877 8.79961 14.4489 8.45699C14.11 8.11437 13.9199 7.6519 13.92 7.17C13.8869 6.70354 14.0397 6.24295 14.3451 5.88882C14.6506 5.5347 15.0837 5.31582 15.55 5.28H15.7C15.9298 5.25355 16.1626 5.27268 16.385 5.33628C16.6075 5.39989 16.8152 5.50673 16.9963 5.65069C17.1774 5.79466 17.3284 5.97292 17.4405 6.17527C17.5527 6.37763 17.6239 6.60012 17.65 6.83C17.6549 6.91326 17.6549 6.99674 17.65 7.08C17.6779 7.5516 17.5214 8.01558 17.2135 8.37388C16.9056 8.73218 16.4704 8.9567 16 9H15.76H15.7299ZM6.85995 8.44C6.67264 8.25265 6.52824 8.02686 6.43673 7.77824C6.34523 7.52961 6.30879 7.26409 6.32995 7C6.32174 6.54524 6.49193 6.10534 6.80407 5.77451C7.11621 5.44368 7.54548 5.24823 7.99995 5.23H8.23995C8.70734 5.20251 9.16674 5.36027 9.51863 5.66911C9.87052 5.97795 10.0866 6.413 10.12 6.88V7C10.1418 7.24734 10.1134 7.49653 10.0363 7.73258C9.95932 7.96863 9.83533 8.18666 9.67183 8.37352C9.50832 8.56038 9.30869 8.71222 9.08495 8.81988C8.86121 8.92755 8.61799 8.98882 8.36995 9H8.14995C7.66217 8.99943 7.19458 8.8052 6.84995 8.46L6.85995 8.44Z"/>
</svg>
