<svg width="24" height="24" viewBox="0 0 24 24" xmlns="http://www.w3.org/2000/svg">
  <path fill-rule="evenodd" clip-rule="evenodd" d="M20 17H15.82C15.8199 16.884 15.7996 16.769 15.76 16.66C15.4409 15.7709 14.8174 15.0234 14 14.55V9.43999C14.7626 8.99972 15.3586 8.32014 15.6955 7.50663C16.0325 6.69312 16.0916 5.79115 15.8637 4.94062C15.6358 4.09008 15.1336 3.33851 14.435 2.80248C13.7365 2.26644 12.8805 1.97589 12 1.97589C11.1195 1.97589 10.2635 2.26644 9.56495 2.80248C8.86638 3.33851 8.3642 4.09008 8.1363 4.94062C7.9084 5.79115 7.96751 6.69312 8.30448 7.50663C8.64145 8.32014 9.23743 8.99972 10 9.43999V14.55C9.18259 15.0234 8.55912 15.7709 8.24 16.66C8.20044 16.769 8.18014 16.884 8.18 17H4C3.73478 17 3.48043 17.1053 3.29289 17.2929C3.10536 17.4804 3 17.7348 3 18V21C3 21.2652 3.10536 21.5196 3.29289 21.7071C3.48043 21.8946 3.73478 22 4 22H20C20.2652 22 20.5196 21.8946 20.7071 21.7071C20.8946 21.5196 21 21.2652 21 21V18C21 17.7348 20.8946 17.4804 20.7071 17.2929C20.5196 17.1053 20.2652 17 20 17ZM9 5.99999C9 5.40665 9.17595 4.82663 9.50559 4.33328C9.83524 3.83993 10.3038 3.45542 10.8519 3.22835C11.4001 3.00129 12.0033 2.94188 12.5853 3.05764C13.1672 3.17339 13.7018 3.45911 14.1213 3.87867C14.5409 4.29823 14.8266 4.83278 14.9424 5.41472C15.0581 5.99667 14.9987 6.59986 14.7716 7.14804C14.5446 7.69622 14.1601 8.16476 13.6667 8.4944C13.1734 8.82405 12.5933 8.99999 12 8.99999C11.2044 8.99999 10.4413 8.68392 9.87868 8.12131C9.31607 7.5587 9 6.79564 9 5.99999ZM11 15.18V9.85999C11.3263 9.94779 11.6622 9.99481 12 9.99999C12.3378 9.99481 12.6737 9.94779 13 9.85999V15.18C13.4194 15.3293 13.8003 15.5701 14.1151 15.8849C14.4299 16.1997 14.6707 16.5806 14.82 17H9.18C9.32932 16.5806 9.57011 16.1997 9.8849 15.8849C10.1997 15.5701 10.5806 15.3293 11 15.18ZM4 21V18H20V21H4ZM9.5 19C9.36739 19 9.24021 19.0527 9.14645 19.1464C9.05268 19.2402 9 19.3674 9 19.5C9 19.6326 9.05268 19.7598 9.14645 19.8536C9.24021 19.9473 9.36739 20 9.5 20H14.5C14.6326 20 14.7598 19.9473 14.8536 19.8536C14.9473 19.7598 15 19.6326 15 19.5C15 19.3674 14.9473 19.2402 14.8536 19.1464C14.7598 19.0527 14.6326 19 14.5 19H9.5ZM10.6 4.3C10.8582 4.1026 11.175 3.99703 11.5 4C11.6326 4 11.7598 4.05268 11.8536 4.14645C11.9473 4.24022 12 4.36739 12 4.5C12 4.63261 11.9473 4.75979 11.8536 4.85355C11.7598 4.94732 11.6326 5 11.5 5C11.3915 4.99768 11.2855 5.03302 11.2 5.1C11.1373 5.14602 11.0865 5.2063 11.0517 5.27585C11.0169 5.34541 10.9992 5.42224 11 5.5C11 5.63261 10.9473 5.75979 10.8536 5.85355C10.7598 5.94732 10.6326 6 10.5 6C10.3674 6 10.2402 5.94732 10.1465 5.85355C10.0527 5.75979 10 5.63261 10 5.5C9.99923 5.267 10.0531 5.03705 10.1573 4.82865C10.2615 4.62024 10.4131 4.43918 10.6 4.3Z"/>
</svg>
