<svg width="24" height="24" viewBox="0 0 24 24" xmlns="http://www.w3.org/2000/svg">
  <path fill-rule="evenodd" clip-rule="evenodd" d="M9 2H19C19.2652 2 19.5196 2.10536 19.7071 2.29289C19.8946 2.48043 20 2.73478 20 3V17C20 17.2652 19.8946 17.5196 19.7071 17.7071C19.5196 17.8946 19.2652 18 19 18H18V19C18 19.2652 17.8946 19.5196 17.7071 19.7071C17.5196 19.8946 17.2652 20 17 20H16V21C16 21.2652 15.8946 21.5196 15.7071 21.7071C15.5196 21.8946 15.2652 22 15 22H5C4.73478 22 4.48043 21.8946 4.29289 21.7071C4.10536 21.5196 4 21.2652 4 21V7C4 6.73478 4.10536 6.48043 4.29289 6.29289C4.48043 6.10536 4.73478 6 5 6H6V5C6 4.73478 6.10536 4.48043 6.29289 4.29289C6.48043 4.10536 6.73478 4 7 4H8V3C8 2.73478 8.10536 2.48043 8.29289 2.29289C8.48043 2.10536 8.73478 2 9 2ZM5 21H15V20H7C6.73478 20 6.48043 19.8946 6.29289 19.7071C6.10536 19.5196 6 19.2652 6 19V7H5V21ZM7 19H17V18H9C8.73478 18 8.48043 17.8946 8.29289 17.7071C8.10536 17.5196 8 17.2652 8 17V5H7V19ZM9 17H19V3H9V17ZM13.29 12.87L13 12.6C12.9714 12.5732 12.9429 12.5466 12.9146 12.5201C11.8538 11.5276 11 10.7288 11 9.56C11.005 9.02303 11.2185 8.50902 11.5954 8.12652C11.9724 7.74401 12.4832 7.52295 13.02 7.51C13.3309 7.5108 13.638 7.57904 13.92 7.71C14.202 7.57904 14.5091 7.5108 14.82 7.51C15.0969 7.50596 15.3718 7.55752 15.6284 7.66162C15.885 7.76572 16.1181 7.92026 16.3139 8.11607C16.5097 8.31188 16.6643 8.545 16.7684 8.80161C16.8725 9.05822 16.924 9.33311 16.92 9.61C16.92 10.76 16.06 11.61 14.92 12.61L14.63 12.87C14.4462 13.0358 14.2075 13.1276 13.96 13.1276C13.7125 13.1276 13.4738 13.0358 13.29 12.87ZM13.5559 8.57162C13.4006 8.49913 13.2314 8.46106 13.06 8.46H13.1C12.9548 8.45729 12.8105 8.48388 12.6759 8.5382C12.5412 8.59252 12.4188 8.67345 12.3161 8.77614C12.2134 8.87883 12.1325 9.00117 12.0782 9.13586C12.0239 9.27054 11.9973 9.4148 12 9.56C12 10.273 12.6418 10.8686 13.5643 11.7247C13.6122 11.7691 13.6607 11.8142 13.71 11.86L14 12.13L14.29 11.87L14.2924 11.8678C15.3211 10.929 16 10.3094 16 9.56C16.003 9.41131 15.9752 9.2636 15.9185 9.12613C15.8617 8.98866 15.7772 8.8644 15.6701 8.76113C15.5631 8.65786 15.4359 8.57781 15.2965 8.52599C15.1571 8.47417 15.0085 8.45171 14.86 8.46C14.6886 8.46106 14.5194 8.49913 14.3641 8.57162C14.2088 8.64411 14.0709 8.7493 13.96 8.88C13.8491 8.7493 13.7112 8.64411 13.5559 8.57162Z"/>
</svg>
