<svg width="24" height="24" viewBox="0 0 24 24" xmlns="http://www.w3.org/2000/svg">
  <path fill-rule="evenodd" clip-rule="evenodd" d="M9 15C8.83348 15.01 8.66652 15.01 8.5 15C7.21442 15 5.95772 14.6188 4.8888 13.9046C3.81988 13.1903 2.98676 12.1752 2.49479 10.9874C2.00282 9.79973 1.87409 8.49279 2.1249 7.23192C2.3757 5.97104 2.99477 4.81285 3.90381 3.90381C4.81285 2.99477 5.97104 2.3757 7.23192 2.1249C8.49279 1.87409 9.79973 2.00282 10.9874 2.49479C12.1752 2.98676 13.1903 3.81988 13.9046 4.8888C14.6188 5.95772 15 7.21442 15 8.5V8.99V9.13V19C15 19.2652 14.8946 19.5196 14.7071 19.7071C14.5196 19.8946 14.2652 20 14 20H10C9.73479 20 9.48043 19.8946 9.2929 19.7071C9.10536 19.5196 9 19.2652 9 19V15ZM14 19V12C13.0842 13.4245 11.6494 14.436 10 14.82V19H14ZM11.7727 4.22898C10.9694 3.61226 10.0083 3.23479 9 3.14V8.3L12.37 12.23C13.0728 11.5008 13.5556 10.5881 13.7627 9.59678C13.9698 8.60545 13.893 7.57579 13.5409 6.62621C13.1889 5.67663 12.576 4.84569 11.7727 4.22898ZM8 8V3.14C6.75091 3.25783 5.58204 3.80771 4.69488 4.69488C3.80771 5.58204 3.25783 6.75091 3.14 8H8ZM11.59 12.9L8.25 9H3.14C3.22788 9.93828 3.56068 10.837 4.10508 11.6062C4.64948 12.3755 5.38638 12.9882 6.24203 13.3831C7.09767 13.778 8.04204 13.9413 8.9806 13.8565C9.91916 13.7717 10.819 13.4419 11.59 12.9ZM21 3H17C16.7348 3 16.4804 3.10536 16.2929 3.29289C16.1054 3.48043 16 3.73478 16 4V19C16 19.2652 16.1054 19.5196 16.2929 19.7071C16.4804 19.8946 16.7348 20 17 20H21C21.2652 20 21.5196 19.8946 21.7071 19.7071C21.8946 19.5196 22 19.2652 22 19V4C22 3.73478 21.8946 3.48043 21.7071 3.29289C21.5196 3.10536 21.2652 3 21 3ZM21 19H17V4H21V19ZM7 20H3C2.73478 20 2.48043 19.8946 2.29289 19.7071C2.10536 19.5196 2 19.2652 2 19V17C2 16.7348 2.10536 16.4804 2.29289 16.2929C2.48043 16.1054 2.73478 16 3 16H7C7.26522 16 7.51957 16.1054 7.70711 16.2929C7.89464 16.4804 8 16.7348 8 17V19C8 19.2652 7.89464 19.5196 7.70711 19.7071C7.51957 19.8946 7.26522 20 7 20ZM7 17H3V19H7V17ZM2.5 21H21.5C21.6326 21 21.7598 21.0527 21.8536 21.1464C21.9473 21.2402 22 21.3674 22 21.5C22 21.6326 21.9473 21.7598 21.8536 21.8536C21.7598 21.9473 21.6326 22 21.5 22H2.5C2.36739 22 2.24021 21.9473 2.14645 21.8536C2.05268 21.7598 2 21.6326 2 21.5C2 21.3674 2.05268 21.2402 2.14645 21.1464C2.24021 21.0527 2.36739 21 2.5 21Z"/>
</svg>
