<svg width="24" height="24" viewBox="0 0 24 24" xmlns="http://www.w3.org/2000/svg">
  <path d="M21.22 18.56C21.1699 18.4168 21.0878 18.2868 20.98 18.18L17.98 15.18V12.5C17.9737 11.4934 17.6673 10.5116 17.1 9.68001L18.23 8.56001L19.23 9.56001C19.2765 9.60687 19.3318 9.64407 19.3927 9.66946C19.4537 9.69484 19.519 9.70791 19.585 9.70791C19.651 9.70791 19.7164 9.69484 19.7773 9.66946C19.8383 9.64407 19.8936 9.60687 19.94 9.56001L20.01 9.49001C20.1017 9.39654 20.153 9.27089 20.153 9.14001C20.153 9.00913 20.1017 8.88347 20.01 8.79001L18.01 6.79001L20.84 3.95001C20.9944 3.98493 21.155 3.98033 21.3071 3.93663C21.4592 3.89293 21.5978 3.81154 21.71 3.70001C21.8418 3.50751 21.902 3.27502 21.8805 3.04277C21.8589 2.81052 21.7568 2.59312 21.5919 2.42819C21.4269 2.26326 21.2095 2.16117 20.9773 2.13959C20.745 2.11801 20.5125 2.17829 20.32 2.31001C20.2085 2.42226 20.1271 2.56085 20.0834 2.71293C20.0397 2.86502 20.0351 3.02567 20.07 3.18001L17.23 6.00001L15.23 4.00001C15.1366 3.9084 15.0109 3.85708 14.88 3.85708C14.7492 3.85708 14.6235 3.9084 14.53 4.00001H14.42C14.3732 4.04649 14.336 4.10179 14.3106 4.16272C14.2852 4.22365 14.2721 4.289 14.2721 4.35501C14.2721 4.42101 14.2852 4.48637 14.3106 4.5473C14.336 4.60823 14.3732 4.66353 14.42 4.71001L15.42 5.71001L13.89 7.30001C13.7426 6.92697 13.4864 6.60687 13.1547 6.38131C12.823 6.15574 12.4312 6.03513 12.03 6.03513C11.6289 6.03513 11.2371 6.15574 10.9054 6.38131C10.5737 6.60687 10.3175 6.92697 10.17 7.30001L8.56004 5.75001L9.56004 4.75001C9.6069 4.70353 9.6441 4.64823 9.66948 4.5873C9.69487 4.52637 9.70794 4.46101 9.70794 4.39501C9.70794 4.329 9.69487 4.26365 9.66948 4.20272C9.6441 4.14179 9.6069 4.08649 9.56004 4.04001L9.51004 4.00001C9.41657 3.9084 9.29091 3.85708 9.16004 3.85708C9.02916 3.85708 8.9035 3.9084 8.81004 4.00001L6.81004 6.00001L3.93004 3.16001C3.96496 3.00567 3.96036 2.84502 3.91666 2.69293C3.87296 2.54085 3.79157 2.40226 3.68004 2.29001C3.48754 2.15829 3.25505 2.09801 3.0228 2.11959C2.79055 2.14117 2.57315 2.24326 2.40822 2.40819C2.24329 2.57312 2.1412 2.79052 2.11962 3.02277C2.09803 3.25502 2.15832 3.48751 2.29004 3.68001C2.40229 3.79154 2.54088 3.87293 2.69296 3.91663C2.84505 3.96033 3.0057 3.96493 3.16004 3.93001L6.00004 6.77001L4.00004 8.77001C3.90842 8.86347 3.85711 8.98913 3.85711 9.12001C3.85711 9.25089 3.90842 9.37654 4.00004 9.47001V9.58001C4.04652 9.62687 4.10182 9.66407 4.16275 9.68945C4.22368 9.71484 4.28903 9.72791 4.35504 9.72791C4.42104 9.72791 4.4864 9.71484 4.54733 9.68945C4.60826 9.66407 4.66356 9.62687 4.71004 9.58001L5.71004 8.58001L6.88004 9.68001C6.31273 10.5116 6.00634 11.4934 6.00004 12.5V15.19L3.00004 18.19C2.89224 18.2968 2.81017 18.4268 2.76004 18.57L2.03004 20.69C1.98055 20.8417 1.96807 21.003 1.99364 21.1605C2.01922 21.318 2.0821 21.4671 2.17705 21.5953C2.27199 21.7235 2.39624 21.8271 2.53941 21.8976C2.68258 21.968 2.84052 22.0031 3.00004 22C3.10616 22.0152 3.21391 22.0152 3.32004 22L5.44004 21.27C5.58621 21.2112 5.71641 21.1187 5.82004 21L7.49004 19.33C11.3 21 11.8 21 12 21C12.2 21 12.7 21 16.51 19.31L18.18 21C18.2869 21.1078 18.4168 21.1899 18.56 21.24L20.68 21.97C20.7847 21.9952 20.8925 22.0053 21 22C21.1632 22.0087 21.326 21.9772 21.4742 21.9084C21.6224 21.8396 21.7515 21.7355 21.8502 21.6053C21.9489 21.475 22.0141 21.3226 22.0402 21.1613C22.0664 21 22.0526 20.8347 22 20.68L21.22 18.56ZM16.15 6.46001L17.54 7.85001L16.49 8.90001C16.0299 8.41334 15.4885 8.01064 14.89 7.71001L16.15 6.46001ZM6.46004 7.85001L7.85004 6.46001L9.11004 7.71001C8.51158 8.01064 7.97013 8.41334 7.51004 8.90001L6.46004 7.85001ZM5.12004 20.28L3.00004 21L3.72004 18.88L6.00004 16.61V18C6.00134 18.1782 6.05022 18.3528 6.14165 18.5058C6.23307 18.6587 6.36371 18.7845 6.52004 18.87L5.12004 20.28ZM14.5 13H9.50004C9.36743 13 9.24025 13.0527 9.14648 13.1465C9.05272 13.2402 9.00004 13.3674 9.00004 13.5C9.00004 13.6326 9.05272 13.7598 9.14648 13.8536C9.24025 13.9473 9.36743 14 9.50004 14H11.5V19.87C10.19 19.44 7.00004 18 7.00004 18V12.5C7.02695 11.5922 7.3279 10.7138 7.86334 9.98027C8.39878 9.24671 9.14365 8.69234 10 8.39001V9.50001C10 9.63262 10.0527 9.75979 10.1465 9.85356C10.2403 9.94733 10.3674 10 10.5 10C10.6326 10 10.7598 9.94733 10.8536 9.85356C10.9474 9.75979 11 9.63262 11 9.50001V8.00001C11 7.73479 11.1054 7.48044 11.2929 7.2929C11.4805 7.10537 11.7348 7.00001 12 7.00001C12.2653 7.00001 12.5196 7.10537 12.7071 7.2929C12.8947 7.48044 13 7.73479 13 8.00001V9.50001C13 9.63262 13.0527 9.75979 13.1465 9.85356C13.2403 9.94733 13.3674 10 13.5 10C13.6326 10 13.7598 9.94733 13.8536 9.85356C13.9474 9.75979 14 9.63262 14 9.50001V8.39001C14.8564 8.69234 15.6013 9.24671 16.1367 9.98027C16.6722 10.7138 16.9731 11.5922 17 12.5V18C17 18 13.81 19.44 12.5 19.87V14H14.5C14.6326 14 14.7598 13.9473 14.8536 13.8536C14.9474 13.7598 15 13.6326 15 13.5C15 13.3674 14.9474 13.2402 14.8536 13.1465C14.7598 13.0527 14.6326 13 14.5 13ZM18.88 20.28L17.48 18.87C17.6364 18.7845 17.767 18.6587 17.8584 18.5058C17.9498 18.3528 17.9987 18.1782 18 18V16.61L20.28 18.88L21 21L18.88 20.28Z"/>
</svg>
