<svg width="24" height="24" viewBox="0 0 24 24" xmlns="http://www.w3.org/2000/svg">
  <path fill-rule="evenodd" clip-rule="evenodd" d="M18 2H16C15.7348 2 15.4804 2.10536 15.2929 2.29289C15.1054 2.48043 15 2.73478 15 3V4H14V3C14 2.73478 13.8947 2.48043 13.7071 2.29289C13.5196 2.10536 13.2652 2 13 2H11C10.7348 2 10.4804 2.10536 10.2929 2.29289C10.1054 2.48043 10 2.73478 10 3V4H9.00002V3C9.00002 2.73478 8.89466 2.48043 8.70712 2.29289C8.51959 2.10536 8.26523 2 8.00002 2H6.00002C5.7348 2 5.48045 2.10536 5.29291 2.29289C5.10537 2.48043 5.00002 2.73478 5.00002 3V6C4.99926 6.13161 5.02448 6.26207 5.07425 6.38391C5.12401 6.50574 5.19734 6.61656 5.29002 6.71L7.00002 8.41V16C7.00002 16.2652 7.10537 16.5196 7.29291 16.7071C7.48045 16.8946 7.7348 17 8.00002 17H10C10.2652 17 10.5196 16.8946 10.7071 16.7071C10.8947 16.5196 11 16.2652 11 16V13.3C11.3123 13.1399 11.6512 13.0382 12 13C12.3488 13.0382 12.6877 13.1399 13 13.3V16C13 16.2652 13.1054 16.5196 13.2929 16.7071C13.4804 16.8946 13.7348 17 14 17H16C16.2652 17 16.5196 16.8946 16.7071 16.7071C16.8947 16.5196 17 16.2652 17 16V8.41L18.71 6.71C18.8027 6.61656 18.876 6.50574 18.9258 6.38391C18.9756 6.26207 19.0008 6.13161 19 6V3C19 2.73478 18.8947 2.48043 18.7071 2.29289C18.5196 2.10536 18.2652 2 18 2ZM18 6L16 8V16H14V13C14 12.45 12.55 12 12 12C11.45 12 10 12.45 10 13V16H8.00002V8L6.00002 6V3H8.00002V5H11V3H13V5H16V3H18V6ZM17.8899 18.55C17.8068 18.3851 17.6797 18.2464 17.5226 18.1493C17.3655 18.0522 17.1846 18.0006 16.9999 18H6.9999C6.81524 18.0006 6.63433 18.0522 6.47724 18.1493C6.32015 18.2464 6.193 18.3851 6.1099 18.55L5.1099 20.55C5.03319 20.7022 4.99667 20.8715 5.00381 21.0419C5.01094 21.2122 5.06149 21.3778 5.15067 21.5231C5.23984 21.6684 5.36467 21.7885 5.5133 21.8719C5.66194 21.9554 5.82944 21.9995 5.9999 22H17.9999C18.1704 21.9995 18.3379 21.9554 18.4865 21.8719C18.6351 21.7885 18.76 21.6684 18.8491 21.5231C18.9383 21.3778 18.9889 21.2122 18.996 21.0419C19.0031 20.8715 18.9666 20.7022 18.8899 20.55L17.8899 18.55ZM5.9999 21L6.9999 19H16.9999L17.9999 21H5.9999ZM9.5 8H14.5C14.6326 8 14.7598 8.05268 14.8536 8.14645C14.9473 8.24021 15 8.36739 15 8.5C15 8.63261 14.9473 8.75979 14.8536 8.85355C14.7598 8.94732 14.6326 9 14.5 9H9.5C9.36739 9 9.24021 8.94732 9.14645 8.85355C9.05268 8.75979 9 8.63261 9 8.5C9 8.36739 9.05268 8.24021 9.14645 8.14645C9.24021 8.05268 9.36739 8 9.5 8Z"/>
</svg>
