<svg width="24" height="24" viewBox="0 0 24 24" xmlns="http://www.w3.org/2000/svg">
  <path fill-rule="evenodd" clip-rule="evenodd" d="M3.33329 2.50559C3.82664 2.17595 4.40666 2 5 2C5.79565 2 6.55871 2.31607 7.12132 2.87868C7.68393 3.44129 8 4.20435 8 5C8 5.59334 7.82405 6.17336 7.49441 6.66671C7.16477 7.16006 6.69623 7.54458 6.14805 7.77164C5.59987 7.9987 4.99667 8.05811 4.41473 7.94236C3.83279 7.8266 3.29824 7.54088 2.87868 7.12132C2.45912 6.70176 2.1734 6.16721 2.05765 5.58527C1.94189 5.00333 2.0013 4.40013 2.22836 3.85195C2.45543 3.30377 2.83994 2.83524 3.33329 2.50559ZM3.88886 6.66294C4.21776 6.8827 4.60444 7 5 7C5.53043 7 6.03914 6.78929 6.41422 6.41421C6.78929 6.03914 7 5.53043 7 5C7 4.60444 6.8827 4.21776 6.66294 3.88886C6.44318 3.55996 6.13082 3.30362 5.76537 3.15224C5.39992 3.00087 4.99778 2.96126 4.60982 3.03843C4.22186 3.1156 3.86549 3.30608 3.58579 3.58579C3.30608 3.86549 3.1156 4.22186 3.03843 4.60982C2.96126 4.99778 3.00087 5.39991 3.15224 5.76537C3.30362 6.13082 3.55996 6.44318 3.88886 6.66294ZM10.3333 2.50559C10.8266 2.17595 11.4067 2 12 2C12.7957 2 13.5587 2.31607 14.1213 2.87868C14.6839 3.44129 15 4.20435 15 5C15 5.59334 14.8241 6.17336 14.4944 6.66671C14.1648 7.16006 13.6962 7.54458 13.1481 7.77164C12.5999 7.9987 11.9967 8.05811 11.4147 7.94236C10.8328 7.8266 10.2982 7.54088 9.87868 7.12132C9.45912 6.70176 9.1734 6.16721 9.05765 5.58527C8.94189 5.00333 9.0013 4.40013 9.22836 3.85195C9.45543 3.30377 9.83994 2.83524 10.3333 2.50559ZM10.8889 6.66294C11.2178 6.8827 11.6044 7 12 7C12.5304 7 13.0391 6.78929 13.4142 6.41421C13.7893 6.03914 14 5.53043 14 5C14 4.60444 13.8827 4.21776 13.6629 3.88886C13.4432 3.55996 13.1308 3.30362 12.7654 3.15224C12.3999 3.00087 11.9978 2.96126 11.6098 3.03843C11.2219 3.1156 10.8655 3.30608 10.5858 3.58579C10.3061 3.86549 10.1156 4.22186 10.0384 4.60982C9.96126 4.99778 10.0009 5.39991 10.1522 5.76537C10.3036 6.13082 10.56 6.44318 10.8889 6.66294ZM10.3333 9.50559C10.8266 9.17595 11.4067 9 12 9C12.7957 9 13.5587 9.31607 14.1213 9.87868C14.6839 10.4413 15 11.2044 15 12C15 12.5933 14.8241 13.1734 14.4944 13.6667C14.1648 14.1601 13.6962 14.5446 13.1481 14.7716C12.5999 14.9987 11.9967 15.0581 11.4147 14.9424C10.8328 14.8266 10.2982 14.5409 9.87868 14.1213C9.45912 13.7018 9.1734 13.1672 9.05765 12.5853C8.94189 12.0033 9.0013 11.4001 9.22836 10.8519C9.45543 10.3038 9.83994 9.83524 10.3333 9.50559ZM10.8889 13.6629C11.2178 13.8827 11.6044 14 12 14C12.5304 14 13.0391 13.7893 13.4142 13.4142C13.7893 13.0391 14 12.5304 14 12C14 11.6044 13.8827 11.2178 13.6629 10.8889C13.4432 10.56 13.1308 10.3036 12.7654 10.1522C12.3999 10.0009 11.9978 9.96126 11.6098 10.0384C11.2219 10.1156 10.8655 10.3061 10.5858 10.5858C10.3061 10.8655 10.1156 11.2219 10.0384 11.6098C9.96126 11.9978 10.0009 12.3999 10.1522 12.7654C10.3036 13.1308 10.56 13.4432 10.8889 13.6629ZM12 16C11.4067 16 10.8266 16.1759 10.3333 16.5056C9.83994 16.8352 9.45543 17.3038 9.22836 17.8519C9.0013 18.4001 8.94189 19.0033 9.05765 19.5853C9.1734 20.1672 9.45912 20.7018 9.87868 21.1213C10.2982 21.5409 10.8328 21.8266 11.4147 21.9424C11.9967 22.0581 12.5999 21.9987 13.1481 21.7716C13.6962 21.5446 14.1648 21.1601 14.4944 20.6667C14.8241 20.1734 15 19.5933 15 19C15 18.2044 14.6839 17.4413 14.1213 16.8787C13.5587 16.3161 12.7957 16 12 16ZM12 21C11.6044 21 11.2178 20.8827 10.8889 20.6629C10.56 20.4432 10.3036 20.1308 10.1522 19.7654C10.0009 19.3999 9.96126 18.9978 10.0384 18.6098C10.1156 18.2219 10.3061 17.8655 10.5858 17.5858C10.8655 17.3061 11.2219 17.1156 11.6098 17.0384C11.9978 16.9613 12.3999 17.0009 12.7654 17.1522C13.1308 17.3036 13.4432 17.56 13.6629 17.8889C13.8827 18.2178 14 18.6044 14 19C14 19.5304 13.7893 20.0391 13.4142 20.4142C13.0391 20.7893 12.5304 21 12 21ZM5 9C4.40666 9 3.82664 9.17595 3.33329 9.50559C2.83994 9.83524 2.45543 10.3038 2.22836 10.8519C2.0013 11.4001 1.94189 12.0033 2.05765 12.5853C2.1734 13.1672 2.45912 13.7018 2.87868 14.1213C3.29824 14.5409 3.83279 14.8266 4.41473 14.9424C4.99667 15.0581 5.59987 14.9987 6.14805 14.7716C6.69623 14.5446 7.16477 14.1601 7.49441 13.6667C7.82405 13.1734 8 12.5933 8 12C8 11.2044 7.68393 10.4413 7.12132 9.87868C6.55871 9.31607 5.79565 9 5 9ZM5 14C4.60444 14 4.21776 13.8827 3.88886 13.6629C3.55996 13.4432 3.30362 13.1308 3.15224 12.7654C3.00087 12.3999 2.96126 11.9978 3.03843 11.6098C3.1156 11.2219 3.30608 10.8655 3.58579 10.5858C3.86549 10.3061 4.22186 10.1156 4.60982 10.0384C4.99778 9.96126 5.39992 10.0009 5.76537 10.1522C6.13082 10.3036 6.44318 10.56 6.66294 10.8889C6.8827 11.2178 7 11.6044 7 12C7 12.5304 6.78929 13.0391 6.41422 13.4142C6.03914 13.7893 5.53043 14 5 14ZM3.33329 16.5056C3.82664 16.1759 4.40666 16 5 16C5.79565 16 6.55871 16.3161 7.12132 16.8787C7.68393 17.4413 8 18.2044 8 19C8 19.5933 7.82405 20.1734 7.49441 20.6667C7.16477 21.1601 6.69623 21.5446 6.14805 21.7716C5.59987 21.9987 4.99667 22.0581 4.41473 21.9424C3.83279 21.8266 3.29824 21.5409 2.87868 21.1213C2.45912 20.7018 2.1734 20.1672 2.05765 19.5853C1.94189 19.0033 2.0013 18.4001 2.22836 17.8519C2.45543 17.3038 2.83994 16.8352 3.33329 16.5056ZM3.88886 20.6629C4.21776 20.8827 4.60444 21 5 21C5.53043 21 6.03914 20.7893 6.41422 20.4142C6.78929 20.0391 7 19.5304 7 19C7 18.6044 6.8827 18.2178 6.66294 17.8889C6.44318 17.56 6.13082 17.3036 5.76537 17.1522C5.39992 17.0009 4.99778 16.9613 4.60982 17.0384C4.22186 17.1156 3.86549 17.3061 3.58579 17.5858C3.30608 17.8655 3.1156 18.2219 3.03843 18.6098C2.96126 18.9978 3.00087 19.3999 3.15224 19.7654C3.30362 20.1308 3.55996 20.4432 3.88886 20.6629ZM19 8C19.5933 8 20.1734 7.82405 20.6667 7.49441C21.1601 7.16477 21.5446 6.69623 21.7716 6.14805C21.9987 5.59987 22.0581 4.99667 21.9424 4.41473C21.8266 3.83279 21.5409 3.29824 21.1213 2.87868C20.7018 2.45912 20.1672 2.1734 19.5853 2.05765C19.0033 1.94189 18.4001 2.0013 17.8519 2.22836C17.3038 2.45543 16.8352 2.83994 16.5056 3.33329C16.1759 3.82664 16 4.40666 16 5C16 5.79565 16.3161 6.55871 16.8787 7.12132C17.4413 7.68393 18.2044 8 19 8ZM19 3C19.3956 3 19.7822 3.1173 20.1111 3.33706C20.44 3.55682 20.6964 3.86918 20.8478 4.23463C20.9991 4.60009 21.0387 5.00222 20.9616 5.39018C20.8844 5.77814 20.6939 6.13451 20.4142 6.41422C20.1345 6.69392 19.7781 6.8844 19.3902 6.96157C19.0022 7.03874 18.6001 6.99914 18.2346 6.84776C17.8692 6.69639 17.5568 6.44004 17.3371 6.11114C17.1173 5.78224 17 5.39556 17 5C17 4.46957 17.2107 3.96086 17.5858 3.58579C17.9609 3.21072 18.4696 3 19 3ZM17.3333 9.50559C17.8266 9.17595 18.4067 9 19 9C19.7957 9 20.5587 9.31607 21.1213 9.87868C21.6839 10.4413 22 11.2044 22 12C22 12.5933 21.8241 13.1734 21.4944 13.6667C21.1648 14.1601 20.6962 14.5446 20.1481 14.7716C19.5999 14.9987 18.9967 15.0581 18.4147 14.9424C17.8328 14.8266 17.2982 14.5409 16.8787 14.1213C16.4591 13.7018 16.1734 13.1672 16.0576 12.5853C15.9419 12.0033 16.0013 11.4001 16.2284 10.8519C16.4554 10.3038 16.8399 9.83524 17.3333 9.50559ZM17.8889 13.6629C18.2178 13.8827 18.6044 14 19 14C19.5304 14 20.0391 13.7893 20.4142 13.4142C20.7893 13.0391 21 12.5304 21 12C21 11.6044 20.8827 11.2178 20.6629 10.8889C20.4432 10.56 20.1308 10.3036 19.7654 10.1522C19.3999 10.0009 18.9978 9.96126 18.6098 10.0384C18.2219 10.1156 17.8655 10.3061 17.5858 10.5858C17.3061 10.8655 17.1156 11.2219 17.0384 11.6098C16.9613 11.9978 17.0009 12.3999 17.1522 12.7654C17.3036 13.1308 17.56 13.4432 17.8889 13.6629ZM19 16C18.4067 16 17.8266 16.1759 17.3333 16.5056C16.8399 16.8352 16.4554 17.3038 16.2284 17.8519C16.0013 18.4001 15.9419 19.0033 16.0576 19.5853C16.1734 20.1672 16.4591 20.7018 16.8787 21.1213C17.2982 21.5409 17.8328 21.8266 18.4147 21.9424C18.9967 22.0581 19.5999 21.9987 20.1481 21.7716C20.6962 21.5446 21.1648 21.1601 21.4944 20.6667C21.8241 20.1734 22 19.5933 22 19C22 18.2044 21.6839 17.4413 21.1213 16.8787C20.5587 16.3161 19.7957 16 19 16ZM19 21C18.6044 21 18.2178 20.8827 17.8889 20.6629C17.56 20.4432 17.3036 20.1308 17.1522 19.7654C17.0009 19.3999 16.9613 18.9978 17.0384 18.6098C17.1156 18.2219 17.3061 17.8655 17.5858 17.5858C17.8655 17.3061 18.2219 17.1156 18.6098 17.0384C18.9978 16.9613 19.3999 17.0009 19.7654 17.1522C20.1308 17.3036 20.4432 17.56 20.6629 17.8889C20.8827 18.2178 21 18.6044 21 19C21 19.5304 20.7893 20.0391 20.4142 20.4142C20.0391 20.7893 19.5304 21 19 21ZM13 5C13 5.55228 12.5523 6 12 6C11.4477 6 11 5.55228 11 5C11 4.44772 11.4477 4 12 4C12.5523 4 13 4.44772 13 5ZM12 13C12.5523 13 13 12.5523 13 12C13 11.4477 12.5523 11 12 11C11.4477 11 11 11.4477 11 12C11 12.5523 11.4477 13 12 13ZM13 19C13 19.5523 12.5523 20 12 20C11.4477 20 11 19.5523 11 19C11 18.4477 11.4477 18 12 18C12.5523 18 13 18.4477 13 19Z"/>
</svg>
