<svg width="24" height="24" viewBox="0 0 24 24" xmlns="http://www.w3.org/2000/svg">
  <path d="M19.9999 11H6.40994L10.7099 6.71C10.8032 6.61676 10.8771 6.50607 10.9276 6.38425C10.9781 6.26243 11.004 6.13186 11.004 6C11.004 5.86814 10.9781 5.73758 10.9276 5.61575C10.8771 5.49393 10.8032 5.38324 10.7099 5.29C10.6167 5.19676 10.506 5.1228 10.3842 5.07234C10.2624 5.02188 10.1318 4.99591 9.99994 4.99591C9.86808 4.99591 9.73751 5.02188 9.61569 5.07234C9.49387 5.1228 9.38318 5.19676 9.28994 5.29L3.28994 11.29C3.19621 11.383 3.12182 11.4936 3.07105 11.6154C3.02028 11.7373 2.99414 11.868 2.99414 12C2.99414 12.132 3.02028 12.2627 3.07105 12.3846C3.12182 12.5064 3.19621 12.617 3.28994 12.71L9.28994 18.71C9.3829 18.8037 9.4935 18.8781 9.61536 18.9289C9.73722 18.9797 9.86793 19.0058 9.99994 19.0058C10.132 19.0058 10.2627 18.9797 10.3845 18.9289C10.5064 18.8781 10.617 18.8037 10.7099 18.71C10.8037 18.617 10.8781 18.5064 10.9288 18.3846C10.9796 18.2627 11.0057 18.132 11.0057 18C11.0057 17.868 10.9796 17.7373 10.9288 17.6154C10.8781 17.4936 10.8037 17.383 10.7099 17.29L6.40994 13H19.9999C20.2652 13 20.5195 12.8946 20.707 12.7071C20.8946 12.5196 20.9999 12.2652 20.9999 12C20.9999 11.7348 20.8946 11.4804 20.707 11.2929C20.5195 11.1054 20.2652 11 19.9999 11Z"/>
</svg>
