<svg width="24" height="24" viewBox="0 0 24 24" xmlns="http://www.w3.org/2000/svg">
  <path d="M7 4C6.40666 4 5.82664 4.17595 5.33329 4.50559C4.83994 4.83524 4.45543 5.30377 4.22836 5.85195C4.0013 6.40013 3.94189 7.00333 4.05765 7.58527C4.1734 8.16721 4.45912 8.70176 4.87868 9.12132C5.29824 9.54088 5.83279 9.8266 6.41473 9.94236C6.99667 10.0581 7.59987 9.9987 8.14805 9.77164C8.69623 9.54458 9.16477 9.16006 9.49441 8.66671C9.82405 8.17336 10 7.59334 10 7C10 6.20435 9.68393 5.44129 9.12132 4.87868C8.55871 4.31607 7.79565 4 7 4ZM7 8C6.80222 8 6.60888 7.94135 6.44443 7.83147C6.27998 7.72159 6.15181 7.56541 6.07612 7.38268C6.00043 7.19996 5.98063 6.99889 6.01922 6.80491C6.0578 6.61093 6.15304 6.43275 6.29289 6.29289C6.43275 6.15304 6.61093 6.0578 6.80491 6.01921C6.99889 5.98063 7.19996 6.00043 7.38268 6.07612C7.56541 6.15181 7.72159 6.27998 7.83147 6.44443C7.94135 6.60888 8 6.80222 8 7C8 7.26522 7.89464 7.51957 7.70711 7.70711C7.51957 7.89464 7.26522 8 7 8Z"/>
  <path d="M17 10C17.5933 10 18.1734 9.82405 18.6667 9.49441C19.1601 9.16477 19.5446 8.69623 19.7716 8.14805C19.9987 7.59987 20.0581 6.99667 19.9424 6.41473C19.8266 5.83279 19.5409 5.29824 19.1213 4.87868C18.7018 4.45912 18.1672 4.1734 17.5853 4.05765C17.0033 3.94189 16.4001 4.0013 15.8519 4.22836C15.3038 4.45543 14.8352 4.83994 14.5056 5.33329C14.1759 5.82664 14 6.40666 14 7C14 7.79565 14.3161 8.55871 14.8787 9.12132C15.4413 9.68393 16.2044 10 17 10ZM17 6C17.1978 6 17.3911 6.05865 17.5556 6.16853C17.72 6.27841 17.8482 6.43459 17.9239 6.61732C17.9996 6.80004 18.0194 7.00111 17.9808 7.19509C17.9422 7.38907 17.847 7.56726 17.7071 7.70711C17.5673 7.84696 17.3891 7.9422 17.1951 7.98079C17.0011 8.01937 16.8 7.99957 16.6173 7.92388C16.4346 7.84819 16.2784 7.72002 16.1685 7.55557C16.0586 7.39112 16 7.19778 16 7C16 6.73478 16.1054 6.48043 16.2929 6.29289C16.4804 6.10536 16.7348 6 17 6Z"/>
  <path d="M7 14C6.40666 14 5.82664 14.1759 5.33329 14.5056C4.83994 14.8352 4.45543 15.3038 4.22836 15.8519C4.0013 16.4001 3.94189 17.0033 4.05765 17.5853C4.1734 18.1672 4.45912 18.7018 4.87868 19.1213C5.29824 19.5409 5.83279 19.8266 6.41473 19.9424C6.99667 20.0581 7.59987 19.9987 8.14805 19.7716C8.69623 19.5446 9.16477 19.1601 9.49441 18.6667C9.82405 18.1734 10 17.5933 10 17C10 16.2044 9.68393 15.4413 9.12132 14.8787C8.55871 14.3161 7.79565 14 7 14ZM7 18C6.80222 18 6.60888 17.9414 6.44443 17.8315C6.27998 17.7216 6.15181 17.5654 6.07612 17.3827C6.00043 17.2 5.98063 16.9989 6.01922 16.8049C6.0578 16.6109 6.15304 16.4327 6.29289 16.2929C6.43275 16.153 6.61093 16.0578 6.80491 16.0192C6.99889 15.9806 7.19996 16.0004 7.38268 16.0761C7.56541 16.1518 7.72159 16.28 7.83147 16.4444C7.94135 16.6089 8 16.8022 8 17C8 17.2652 7.89464 17.5196 7.70711 17.7071C7.51957 17.8946 7.26522 18 7 18Z"/>
  <path d="M17 14C16.4067 14 15.8266 14.1759 15.3333 14.5056C14.8399 14.8352 14.4554 15.3038 14.2284 15.8519C14.0013 16.4001 13.9419 17.0033 14.0576 17.5853C14.1734 18.1672 14.4591 18.7018 14.8787 19.1213C15.2982 19.5409 15.8328 19.8266 16.4147 19.9424C16.9967 20.0581 17.5999 19.9987 18.1481 19.7716C18.6962 19.5446 19.1648 19.1601 19.4944 18.6667C19.8241 18.1734 20 17.5933 20 17C20 16.2044 19.6839 15.4413 19.1213 14.8787C18.5587 14.3161 17.7957 14 17 14ZM17 18C16.8022 18 16.6089 17.9414 16.4444 17.8315C16.28 17.7216 16.1518 17.5654 16.0761 17.3827C16.0004 17.2 15.9806 16.9989 16.0192 16.8049C16.0578 16.6109 16.153 16.4327 16.2929 16.2929C16.4327 16.153 16.6109 16.0578 16.8049 16.0192C16.9989 15.9806 17.2 16.0004 17.3827 16.0761C17.5654 16.1518 17.7216 16.28 17.8315 16.4444C17.9414 16.6089 18 16.8022 18 17C18 17.2652 17.8946 17.5196 17.7071 17.7071C17.5196 17.8946 17.2652 18 17 18Z"/>
</svg>
