<svg width="24" height="24" viewBox="0 0 24 24" xmlns="http://www.w3.org/2000/svg">
  <path d="M19 3H5C4.46957 3 3.96086 3.21071 3.58579 3.58579C3.21071 3.96086 3 4.46957 3 5V19C3 19.5304 3.21071 20.0391 3.58579 20.4142C3.96086 20.7893 4.46957 21 5 21H19C19.5304 21 20.0391 20.7893 20.4142 20.4142C20.7893 20.0391 21 19.5304 21 19V5C21 4.46957 20.7893 3.96086 20.4142 3.58579C20.0391 3.21071 19.5304 3 19 3ZM17.75 9.15L10.87 16C10.7056 16.1575 10.4876 16.2468 10.26 16.25C10.035 16.2484 9.81959 16.1586 9.66 16L6.25 12.62C6.09061 12.459 6.00121 12.2416 6.00121 12.015C6.00121 11.7884 6.09061 11.571 6.25 11.41C6.32907 11.3299 6.42327 11.2663 6.52713 11.2228C6.63098 11.1794 6.74243 11.1571 6.855 11.1571C6.96757 11.1571 7.07902 11.1794 7.18287 11.2228C7.28673 11.2663 7.38093 11.3299 7.46 11.41L10.26 14.21L16.54 7.93C16.701 7.77061 16.9184 7.68121 17.145 7.68121C17.3716 7.68121 17.589 7.77061 17.75 7.93C17.9077 8.09394 17.9957 8.31255 17.9957 8.54C17.9957 8.76745 17.9077 8.98606 17.75 9.15Z"/>
</svg>
