<svg width="24" height="24" viewBox="0 0 24 24" xmlns="http://www.w3.org/2000/svg">
  <path d="M9.99994 18C9.86833 18.0008 9.73787 17.9755 9.61603 17.9258C9.4942 17.876 9.38338 17.8027 9.28994 17.71C9.19621 17.617 9.12182 17.5064 9.07105 17.3846C9.02028 17.2627 8.99414 17.132 8.99414 17C8.99414 16.868 9.02028 16.7373 9.07105 16.6154C9.12182 16.4936 9.19621 16.383 9.28994 16.29L13.5899 12L9.28994 7.71C9.10164 7.5217 8.99585 7.2663 8.99585 7C8.99585 6.7337 9.10164 6.47831 9.28994 6.29C9.47824 6.1017 9.73364 5.99591 9.99994 5.99591C10.2662 5.99591 10.5216 6.1017 10.7099 6.29L15.7099 11.29C15.8037 11.383 15.8781 11.4936 15.9288 11.6154C15.9796 11.7373 16.0057 11.868 16.0057 12C16.0057 12.132 15.9796 12.2627 15.9288 12.3846C15.8781 12.5064 15.8037 12.617 15.7099 12.71L10.7099 17.71C10.6165 17.8027 10.5057 17.876 10.3838 17.9258C10.262 17.9755 10.1315 18.0008 9.99994 18Z"/>
</svg>
