<svg width="24" height="24" viewBox="0 0 24 24" xmlns="http://www.w3.org/2000/svg">
  <path d="M13.4158 12.0041L18.7158 6.71409C18.9041 6.52579 19.0099 6.27039 19.0099 6.00409C19.0099 5.73779 18.9041 5.4824 18.7158 5.29409C18.5275 5.10579 18.2721 5 18.0058 5C17.7395 5 17.4841 5.10579 17.2958 5.29409L12.0058 10.5941L6.7158 5.29409C6.52749 5.10579 6.2721 5 6.0058 5C5.7395 5 5.4841 5.10579 5.2958 5.29409C5.10749 5.4824 5.00171 5.73779 5.00171 6.00409C5.00171 6.27039 5.10749 6.52579 5.2958 6.71409L10.5958 12.0041L5.2958 17.2941C5.20207 17.3871 5.12768 17.4977 5.07691 17.6195C5.02614 17.7414 5 17.8721 5 18.0041C5 18.1361 5.02614 18.2668 5.07691 18.3887C5.12768 18.5105 5.20207 18.6211 5.2958 18.7141C5.38876 18.8078 5.49936 18.8822 5.62122 18.933C5.74308 18.9838 5.87379 19.0099 6.0058 19.0099C6.13781 19.0099 6.26852 18.9838 6.39038 18.933C6.51223 18.8822 6.62284 18.8078 6.7158 18.7141L12.0058 13.4141L17.2958 18.7141C17.3888 18.8078 17.4994 18.8822 17.6212 18.933C17.7431 18.9838 17.8738 19.0099 18.0058 19.0099C18.1378 19.0099 18.2685 18.9838 18.3904 18.933C18.5122 18.8822 18.6228 18.8078 18.7158 18.7141C18.8095 18.6211 18.8839 18.5105 18.9347 18.3887C18.9855 18.2668 19.0116 18.1361 19.0116 18.0041C19.0116 17.8721 18.9855 17.7414 18.9347 17.6195C18.8839 17.4977 18.8095 17.3871 18.7158 17.2941L13.4158 12.0041Z"/>
</svg>
