<svg width="24" height="24" viewBox="0 0 24 24" xmlns="http://www.w3.org/2000/svg">
  <path d="M12 2C10.0222 2 8.08879 2.58649 6.4443 3.6853C4.79981 4.78412 3.51809 6.3459 2.76121 8.17317C2.00433 10.0004 1.8063 12.0111 2.19215 13.9509C2.578 15.8907 3.53041 17.6725 4.92894 19.0711C6.32746 20.4696 8.10929 21.422 10.0491 21.8079C11.9889 22.1937 13.9996 21.9957 15.8268 21.2388C17.6541 20.4819 19.2159 19.2002 20.3147 17.5557C21.4135 15.9112 22 13.9778 22 12C22 10.6868 21.7413 9.38642 21.2388 8.17317C20.7363 6.95991 19.9997 5.85752 19.0711 4.92893C18.1425 4.00035 17.0401 3.26375 15.8268 2.7612C14.6136 2.25866 13.3132 2 12 2ZM12 4C13.4891 4.00182 14.9482 4.41924 16.213 5.20526C17.4777 5.99128 18.498 7.11471 19.159 8.44911C19.8199 9.7835 20.0953 11.2759 19.9542 12.7583C19.813 14.2407 19.2609 15.6543 18.36 16.84C16.4728 15.602 14.2567 14.9609 12 15C9.74335 14.9609 7.52719 15.602 5.64 16.84C4.73908 15.6543 4.18698 14.2407 4.04583 12.7583C3.90467 11.2759 4.18007 9.7835 4.84104 8.44911C5.502 7.11471 6.52228 5.99128 7.78706 5.20526C9.05183 4.41924 10.5109 4.00182 12 4ZM7.07 18.29C8.56341 17.4147 10.2693 16.9684 12 17C13.7307 16.9684 15.4366 17.4147 16.93 18.29C15.5226 19.3913 13.787 19.9896 12 19.9896C10.213 19.9896 8.47739 19.3913 7.07 18.29Z"/>
  <path d="M12 14C12.7911 14 13.5645 13.7654 14.2223 13.3259C14.8801 12.8864 15.3928 12.2616 15.6955 11.5307C15.9983 10.7998 16.0775 9.99556 15.9231 9.21964C15.7688 8.44371 15.3878 7.73098 14.8284 7.17157C14.269 6.61216 13.5563 6.2312 12.7804 6.07686C12.0044 5.92252 11.2002 6.00173 10.4693 6.30448C9.73837 6.60723 9.11365 7.11992 8.67413 7.77772C8.2346 8.43552 8 9.20887 8 10C8 11.0609 8.42143 12.0783 9.17158 12.8284C9.92172 13.5786 10.9391 14 12 14ZM12 8C12.3956 8 12.7822 8.1173 13.1111 8.33706C13.44 8.55682 13.6964 8.86918 13.8478 9.23463C13.9991 9.60009 14.0387 10.0022 13.9616 10.3902C13.8844 10.7781 13.6939 11.1345 13.4142 11.4142C13.1345 11.6939 12.7781 11.8844 12.3902 11.9616C12.0022 12.0387 11.6001 11.9991 11.2346 11.8478C10.8692 11.6964 10.5568 11.44 10.3371 11.1111C10.1173 10.7822 10 10.3956 10 10C10 9.46957 10.2107 8.96086 10.5858 8.58579C10.9609 8.21071 11.4696 8 12 8Z"/>
</svg>
