<svg width="24" height="24" viewBox="0 0 24 24" xmlns="http://www.w3.org/2000/svg">
  <path d="M22.21 6.60999C22.117 6.51626 22.0064 6.44186 21.8846 6.3911C21.7627 6.34033 21.632 6.31419 21.5 6.31419C21.368 6.31419 21.2373 6.34033 21.1154 6.3911C20.9936 6.44186 20.883 6.51626 20.79 6.60999L12.13 15.27L8.21 11.34C8.11704 11.2463 8.00643 11.1719 7.88458 11.1211C7.76272 11.0703 7.63201 11.0442 7.5 11.0442C7.36799 11.0442 7.23728 11.0703 7.11542 11.1211C6.99356 11.1719 6.88296 11.2463 6.79 11.34C6.60375 11.5274 6.49921 11.7808 6.49921 12.045C6.49921 12.3092 6.60375 12.5626 6.79 12.75L11.43 17.39C11.6174 17.5762 11.8708 17.6808 12.135 17.6808C12.3992 17.6808 12.6526 17.5762 12.84 17.39L22.21 7.99999C22.3902 7.81352 22.491 7.56433 22.491 7.30499C22.491 7.04565 22.3902 6.79645 22.21 6.60999Z"/>
  <path d="M1.79 11.34C1.60375 11.5274 1.49921 11.7808 1.49921 12.045C1.49921 12.3092 1.60375 12.5626 1.79 12.75L6.43 17.39C6.61736 17.5762 6.87081 17.6808 7.135 17.6808C7.39919 17.6808 7.65264 17.5762 7.84 17.39L8.55 16.68L3.21 11.34C3.11704 11.2463 3.00644 11.1719 2.88458 11.1211C2.76272 11.0703 2.63201 11.0442 2.5 11.0442C2.36799 11.0442 2.23728 11.0703 2.11542 11.1211C1.99356 11.1719 1.88296 11.2463 1.79 11.34Z"/>
  <path d="M17.21 7.99999C17.3962 7.81263 17.5008 7.55917 17.5008 7.29499C17.5008 7.0308 17.3962 6.77735 17.21 6.58999C17.117 6.49626 17.0064 6.42186 16.8846 6.3711C16.7627 6.32033 16.632 6.29419 16.5 6.29419C16.368 6.29419 16.2373 6.32033 16.1154 6.3711C15.9936 6.42186 15.883 6.49626 15.79 6.58999L10.63 11.75L12.05 13.16L17.21 7.99999Z"/>
</svg>
