<svg width="24" height="24" viewBox="0 0 24 24" xmlns="http://www.w3.org/2000/svg">
  <path d="M9.63006 17.68C9.36772 17.6789 9.11632 17.5748 8.93006 17.39L4.29006 12.75C4.10381 12.5626 3.99927 12.3092 3.99927 12.045C3.99927 11.7808 4.10381 11.5274 4.29006 11.34C4.38302 11.2463 4.49362 11.1719 4.61548 11.1211C4.73734 11.0703 4.86805 11.0442 5.00006 11.0442C5.13207 11.0442 5.26278 11.0703 5.38464 11.1211C5.5065 11.1719 5.6171 11.2463 5.71006 11.34L9.63006 15.27L18.2901 6.61001C18.383 6.51628 18.4936 6.44188 18.6155 6.39112C18.7373 6.34035 18.868 6.31421 19.0001 6.31421C19.1321 6.31421 19.2628 6.34035 19.3846 6.39112C19.5065 6.44188 19.6171 6.51628 19.7101 6.61001C19.8963 6.79737 20.0009 7.05082 20.0009 7.31501C20.0009 7.57919 19.8963 7.83265 19.7101 8.02001L10.3401 17.39C10.2466 17.4827 10.1358 17.556 10.014 17.6058C9.89213 17.6555 9.76167 17.6808 9.63006 17.68Z"/>
</svg>
