<svg width="24" height="24" viewBox="0 0 24 24" xmlns="http://www.w3.org/2000/svg">
  <path d="M9 18.5C8.8684 18.5008 8.73793 18.4755 8.6161 18.4258C8.49426 18.376 8.38344 18.3027 8.29 18.21L3.29 13.21C3.1017 13.0217 2.99591 12.7663 2.99591 12.5C2.99591 12.2337 3.1017 11.9783 3.29 11.79C3.47831 11.6017 3.7337 11.4959 4 11.4959C4.2663 11.4959 4.5217 11.6017 4.71 11.79L9 16.09L19.29 5.79C19.4783 5.6017 19.7337 5.49591 20 5.49591C20.2663 5.49591 20.5217 5.6017 20.71 5.79C20.8983 5.97831 21.0041 6.2337 21.0041 6.5C21.0041 6.7663 20.8983 7.0217 20.71 7.21L9.71 18.21C9.61656 18.3027 9.50575 18.376 9.38391 18.4258C9.26207 18.4755 9.13161 18.5008 9 18.5Z"/>
</svg>
