<svg width="24" height="24" viewBox="0 0 24 24" xmlns="http://www.w3.org/2000/svg">
  <path d="M8.59566 10.15H15.9357C16.0511 10.1508 16.1638 10.1855 16.2598 10.2498C16.3557 10.314 16.4307 10.405 16.4754 10.5115C16.5201 10.618 16.5326 10.7352 16.5113 10.8487C16.49 10.9622 16.4359 11.067 16.3557 11.15L12.6857 14.82C12.5735 14.9299 12.4227 14.9915 12.2657 14.9915C12.1086 14.9915 11.9578 14.9299 11.8457 14.82L8.17566 11.16C8.092 11.0775 8.03489 10.9718 8.01165 10.8566C7.98841 10.7414 8.0001 10.6219 8.04523 10.5134C8.09035 10.4049 8.16684 10.3124 8.26491 10.2476C8.36298 10.1829 8.47815 10.1489 8.59566 10.15Z"/>
</svg>
