<svg width="24" height="24" viewBox="0 0 24 24" xmlns="http://www.w3.org/2000/svg">
  <path d="M15.9258 14H8.58575C8.47028 13.9992 8.35759 13.9645 8.26166 13.9002C8.16572 13.8359 8.09075 13.7449 8.04603 13.6385C8.00132 13.532 7.98883 13.4148 8.01011 13.3013C8.03139 13.1878 8.0855 13.083 8.16575 13L11.8358 9.32999C11.9479 9.22006 12.0987 9.15848 12.2558 9.15848C12.4128 9.15848 12.5636 9.22006 12.6758 9.32999L16.3458 13C16.426 13.083 16.4801 13.1878 16.5014 13.3013C16.5227 13.4148 16.5102 13.532 16.4655 13.6385C16.4208 13.7449 16.3458 13.8359 16.2498 13.9002C16.1539 13.9645 16.0412 13.9992 15.9258 14Z"/>
</svg>
