<svg width="24" height="24" viewBox="0 0 24 24" xmlns="http://www.w3.org/2000/svg">
  <path d="M20.71 7.86L16.14 3.29C16.0471 3.19627 15.9365 3.12188 15.8146 3.07111C15.6927 3.02034 15.562 2.9942 15.43 2.9942C15.298 2.9942 15.1673 3.02034 15.0454 3.07111C14.9236 3.12188 14.813 3.19627 14.72 3.29L3.29002 14.72C3.19734 14.8134 3.12401 14.9243 3.07425 15.0461C3.02448 15.1679 2.99926 15.2984 3.00002 15.43V20C3.00002 20.2652 3.10537 20.5196 3.29291 20.7071C3.48045 20.8946 3.7348 21 4.00002 21H8.57002C8.70162 21.0008 8.83209 20.9755 8.95392 20.9258C9.07576 20.876 9.18658 20.8027 9.28002 20.71L20.71 9.28C20.8037 9.18704 20.8781 9.07644 20.9289 8.95458C20.9797 8.83272 21.0058 8.70201 21.0058 8.57C21.0058 8.43799 20.9797 8.30728 20.9289 8.18542C20.8781 8.06356 20.8037 7.95296 20.71 7.86ZM8.16002 19H5.00002V15.84L12.38 8.46L15.54 11.62L8.16002 19ZM17 10.21L13.79 7.05L15.43 5.41L18.59 8.57L17 10.21Z"/>
</svg>
