<svg width="24" height="24" viewBox="0 0 24 24" xmlns="http://www.w3.org/2000/svg">
  <path d="M12 2C10.0222 2 8.08879 2.58649 6.4443 3.6853C4.79981 4.78412 3.51809 6.3459 2.76121 8.17317C2.00433 10.0004 1.8063 12.0111 2.19215 13.9509C2.578 15.8907 3.53041 17.6725 4.92894 19.0711C6.32746 20.4696 8.10929 21.422 10.0491 21.8079C11.9889 22.1937 13.9996 21.9957 15.8268 21.2388C17.6541 20.4819 19.2159 19.2002 20.3147 17.5557C21.4135 15.9112 22 13.9778 22 12C22 10.6868 21.7413 9.38642 21.2388 8.17317C20.7363 6.95991 19.9997 5.85752 19.0711 4.92893C18.1425 4.00035 17.0401 3.26375 15.8268 2.7612C14.6136 2.25866 13.3132 2 12 2ZM12 20C10.4178 20 8.87104 19.5308 7.55544 18.6518C6.23985 17.7727 5.21447 16.5233 4.60897 15.0615C4.00347 13.5997 3.84504 11.9911 4.15372 10.4393C4.4624 8.88743 5.22433 7.46197 6.34315 6.34315C7.46197 5.22433 8.88743 4.4624 10.4393 4.15372C11.9911 3.84504 13.5997 4.00346 15.0615 4.60896C16.5233 5.21447 17.7727 6.23984 18.6518 7.55544C19.5308 8.87103 20 10.4177 20 12C20 14.1217 19.1572 16.1566 17.6569 17.6569C16.1566 19.1571 14.1217 20 12 20Z"/>
  <path d="M16.5 14.48C16.3865 14.4135 16.2609 14.37 16.1305 14.3521C16.0002 14.3342 15.8675 14.3422 15.7403 14.3756C15.613 14.4091 15.4936 14.4673 15.3889 14.547C15.2841 14.6267 15.1962 14.7262 15.13 14.84C14.8137 15.3905 14.3577 15.8478 13.8082 16.1659C13.2586 16.4839 12.6349 16.6513 12 16.6513C11.3651 16.6513 10.7414 16.4839 10.1918 16.1659C9.6423 15.8478 9.18635 15.3905 8.87 14.84C8.7374 14.6093 8.51856 14.4407 8.26163 14.3713C8.00471 14.3019 7.73074 14.3374 7.5 14.47C7.26927 14.6026 7.10066 14.8214 7.03127 15.0784C6.96188 15.3353 6.9974 15.6093 7.13 15.84C7.62692 16.6907 8.33798 17.3963 9.19241 17.8868C10.0468 18.3772 11.0148 18.6352 12 18.6352C12.9852 18.6352 13.9532 18.3772 14.8076 17.8868C15.662 17.3963 16.3731 16.6907 16.87 15.84C17.0004 15.6104 17.0346 15.3385 16.9653 15.0837C16.896 14.8289 16.7287 14.6119 16.5 14.48Z"/>
  <path d="M8.5 11C9.32843 11 10 10.3284 10 9.5C10 8.67157 9.32843 8 8.5 8C7.67158 8 7 8.67157 7 9.5C7 10.3284 7.67158 11 8.5 11Z"/>
  <path d="M15.5 11C16.3284 11 17 10.3284 17 9.5C17 8.67157 16.3284 8 15.5 8C14.6716 8 14 8.67157 14 9.5C14 10.3284 14.6716 11 15.5 11Z"/>
</svg>
