<svg width="24" height="24" viewBox="0 0 24 24" xmlns="http://www.w3.org/2000/svg">
  <path d="M6 19H14C14.2652 19 14.5196 19.1054 14.7071 19.2929C14.8946 19.4804 15 19.7348 15 20C15 20.2652 14.8946 20.5196 14.7071 20.7071C14.5196 20.8946 14.2652 21 14 21H5C4.73478 21 4.48043 20.8946 4.29289 20.7071C4.10536 20.5196 4 20.2652 4 20V4C4 3.73478 4.10536 3.48043 4.29289 3.29289C4.48043 3.10536 4.73478 3 5 3H14C14.2652 3 14.5196 3.10536 14.7071 3.29289C14.8946 3.48043 15 3.73478 15 4C15 4.26522 14.8946 4.51957 14.7071 4.70711C14.5196 4.89464 14.2652 5 14 5H6V19Z"/>
  <path d="M16.71 7.29L20.71 11.29C20.8037 11.383 20.8781 11.4936 20.9289 11.6154C20.9797 11.7373 21.0058 11.868 21.0058 12C21.0058 12.132 20.9797 12.2627 20.9289 12.3846C20.8781 12.5064 20.8037 12.617 20.71 12.71L16.71 16.71C16.617 16.8037 16.5064 16.8781 16.3846 16.9289C16.2627 16.9797 16.132 17.0058 16 17.0058C15.868 17.0058 15.7373 16.9797 15.6154 16.9289C15.4936 16.8781 15.383 16.8037 15.29 16.71C15.1963 16.617 15.1219 16.5064 15.0711 16.3846C15.0203 16.2627 14.9942 16.132 14.9942 16C14.9942 15.868 15.0203 15.7373 15.0711 15.6154C15.1219 15.4936 15.1963 15.383 15.29 15.29L17.59 13H9C8.73478 13 8.48043 12.8946 8.29289 12.7071C8.10536 12.5196 8 12.2652 8 12C8 11.7348 8.10536 11.4804 8.29289 11.2929C8.48043 11.1054 8.73478 11 9 11H17.59L15.29 8.71C15.1017 8.5217 14.9959 8.2663 14.9959 8C14.9959 7.86814 15.0219 7.73758 15.0723 7.61575C15.1228 7.49393 15.1968 7.38324 15.29 7.29C15.4783 7.1017 15.7337 6.99591 16 6.99591C16.1319 6.99591 16.2624 7.02188 16.3842 7.07234C16.5061 7.1228 16.6168 7.19676 16.71 7.29Z"/>
</svg>
