<svg width="24" height="24" viewBox="0 0 24 24" xmlns="http://www.w3.org/2000/svg">
  <path fill-rule="evenodd" clip-rule="evenodd" d="M9.77772 8.67412C10.4355 8.2346 11.2089 8 12 8C13.0609 8 14.0783 8.42143 14.8284 9.17157C15.5786 9.92172 16 10.9391 16 12C16 12.7911 15.7654 13.5645 15.3259 14.2223C14.8864 14.8801 14.2616 15.3928 13.5307 15.6955C12.7998 15.9983 11.9956 16.0775 11.2196 15.9231C10.4437 15.7688 9.73098 15.3878 9.17157 14.8284C8.61216 14.269 8.2312 13.5563 8.07686 12.7804C7.92252 12.0044 8.00173 11.2002 8.30448 10.4693C8.60723 9.73836 9.11992 9.11365 9.77772 8.67412ZM10.8889 13.6629C11.2178 13.8827 11.6044 14 12 14C12.5304 14 13.0391 13.7893 13.4142 13.4142C13.7893 13.0391 14 12.5304 14 12C14 11.6044 13.8827 11.2178 13.6629 10.8889C13.4432 10.56 13.1308 10.3036 12.7654 10.1522C12.3999 10.0009 11.9978 9.96126 11.6098 10.0384C11.2219 10.1156 10.8655 10.3061 10.5858 10.5858C10.3061 10.8655 10.1156 11.2219 10.0384 11.6098C9.96126 11.9978 10.0009 12.3999 10.1522 12.7654C10.3036 13.1308 10.56 13.4432 10.8889 13.6629Z"/>
  <path fill-rule="evenodd" clip-rule="evenodd" d="M12 4C18 4 22.65 11.16 22.84 11.46C22.9434 11.6211 22.9984 11.8086 22.9984 12C22.9984 12.1914 22.9434 12.3789 22.84 12.54C22.65 12.84 18 20 12 20C6.00004 20 1.35004 12.84 1.16004 12.54C1.05666 12.3789 1.00171 12.1914 1.00171 12C1.00171 11.8086 1.05666 11.6211 1.16004 11.46C1.35004 11.16 6.00004 4 12 4ZM3.22004 12C4.36004 13.56 7.94004 18 12 18C16.07 18 19.65 13.57 20.78 12C19.64 10.44 16.07 6 12 6C7.93004 6 4.35004 10.43 3.22004 12Z"/>
</svg>
