<svg width="24" height="24" viewBox="0 0 24 24" xmlns="http://www.w3.org/2000/svg">
  <path fill-rule="evenodd" clip-rule="evenodd" d="M6.08 2.00001H17.92C18.1893 1.98923 18.458 2.03299 18.71 2.12866C18.9619 2.22434 19.1919 2.36994 19.3862 2.55675C19.5805 2.74355 19.735 2.96769 19.8405 3.21571C19.946 3.46372 20.0002 3.7305 20 4.00001V21C19.9989 21.1745 19.9522 21.3457 19.8645 21.4966C19.7768 21.6475 19.6511 21.7728 19.5 21.86C19.3507 21.9548 19.1768 22.0035 19 22C18.8248 22.0012 18.6524 21.9564 18.5 21.87L12 18.15L5.5 21.86C5.34798 21.9478 5.17554 21.994 5 21.994C4.82446 21.994 4.65202 21.9478 4.5 21.86C4.34886 21.7728 4.22319 21.6475 4.13548 21.4966C4.04776 21.3457 4.00105 21.1745 4 21V4.00001C3.99979 3.7305 4.05404 3.46372 4.15952 3.21571C4.26499 2.96769 4.41951 2.74355 4.61378 2.55675C4.80806 2.36994 5.03808 2.22434 5.29004 2.12866C5.54201 2.03299 5.8107 1.98923 6.08 2.00001ZM12.5 16.13L18 19.28V4.00001H6.08L6 19.27L11.5 16.13C11.652 16.0422 11.8245 15.996 12 15.996C12.1755 15.996 12.348 16.0422 12.5 16.13ZM8.61536 13.9289C8.4935 13.8781 8.3829 13.8037 8.28994 13.71C8.19621 13.617 8.12182 13.5064 8.07105 13.3846C8.02028 13.2627 7.99414 13.132 7.99414 13C7.99414 12.868 8.02028 12.7373 8.07105 12.6154C8.12182 12.4936 8.19621 12.383 8.28994 12.29L10.5899 10L8.28994 7.71C8.10164 7.5217 7.99585 7.2663 7.99585 7C7.99585 6.7337 8.10164 6.47831 8.28994 6.29C8.47824 6.1017 8.73364 5.99591 8.99994 5.99591C9.26624 5.99591 9.52164 6.1017 9.70994 6.29L11.9999 8.59L14.2899 6.29C14.4782 6.1017 14.7336 5.99591 14.9999 5.99591C15.2662 5.99591 15.5216 6.1017 15.7099 6.29C15.8982 6.47831 16.004 6.7337 16.004 7C16.004 7.2663 15.8982 7.5217 15.7099 7.71L13.4099 10L15.7099 12.29C15.8037 12.383 15.8781 12.4936 15.9288 12.6154C15.9796 12.7373 16.0057 12.868 16.0057 13C16.0057 13.132 15.9796 13.2627 15.9288 13.3846C15.8781 13.5064 15.8037 13.617 15.7099 13.71C15.617 13.8037 15.5064 13.8781 15.3845 13.9289C15.2627 13.9797 15.132 14.0058 14.9999 14.0058C14.8679 14.0058 14.7372 13.9797 14.6154 13.9289C14.4935 13.8781 14.3829 13.8037 14.2899 13.71L11.9999 11.41L9.70994 13.71C9.61698 13.8037 9.50638 13.8781 9.38452 13.9289C9.26266 13.9797 9.13195 14.0058 8.99994 14.0058C8.86793 14.0058 8.73722 13.9797 8.61536 13.9289Z"/>
</svg>
