<svg width="24" height="24" viewBox="0 0 24 24" xmlns="http://www.w3.org/2000/svg">
  <path d="M19 22C18.8248 22.0012 18.6524 21.9564 18.5 21.87L12 18.15L5.50001 21.87C5.34799 21.9578 5.17554 22.004 5.00001 22.004C4.82447 22.004 4.65203 21.9578 4.50001 21.87C4.3474 21.7819 4.22079 21.655 4.13299 21.5023C4.04518 21.3495 3.99931 21.1762 4.00001 21V4.00001C3.99979 3.7305 4.05405 3.46372 4.15953 3.21571C4.265 2.96769 4.41952 2.74355 4.61379 2.55675C4.80806 2.36994 5.03809 2.22434 5.29005 2.12866C5.54201 2.03299 5.81071 1.98923 6.08001 2.00001H17.92C18.1893 1.98923 18.458 2.03299 18.71 2.12866C18.9619 2.22434 19.192 2.36994 19.3862 2.55675C19.5805 2.74355 19.735 2.96769 19.8405 3.21571C19.946 3.46372 20.0002 3.7305 20 4.00001V21C19.999 21.1745 19.9522 21.3457 19.8645 21.4966C19.7768 21.6475 19.6511 21.7728 19.5 21.86C19.3507 21.9548 19.1768 22.0035 19 22ZM12 16C12.1752 15.9988 12.3476 16.0436 12.5 16.13L18 19.28V4.00001H6.08001L6.00001 19.27L11.49 16.13C11.6454 16.0419 11.8214 15.997 12 16Z"/>
</svg>
