<svg width="24" height="24" viewBox="0 0 24 24" xmlns="http://www.w3.org/2000/svg">
  <path d="M17.38 13.74C17.9125 13.742 18.4335 13.5859 18.8772 13.2915C19.3209 12.9971 19.6672 12.5777 19.8724 12.0864C20.0775 11.595 20.1322 11.0538 20.0295 10.5314C19.9269 10.0089 19.6715 9.52865 19.2957 9.15145C18.9199 8.77424 18.4406 8.51705 17.9185 8.41244C17.3964 8.30784 16.855 8.36052 16.3629 8.56382C15.8708 8.76713 15.4501 9.1119 15.1541 9.55448C14.858 9.99707 14.7 10.5175 14.7 11.05C14.7 11.7617 14.982 12.4444 15.4843 12.9486C15.9867 13.4528 16.6683 13.7374 17.38 13.74Z"/>
  <path d="M19 14.72H15.89C16.7956 16.1495 17.2743 17.8078 17.27 19.5C17.27 19.67 17.27 19.83 17.27 20H21.78C22.0452 20 22.2996 19.8946 22.4871 19.7071C22.6746 19.5196 22.78 19.2652 22.78 19V18.46C22.7787 17.9659 22.6797 17.4768 22.4888 17.0211C22.2979 16.5653 22.0188 16.1517 21.6675 15.8042C21.3163 15.4566 20.8998 15.1819 20.442 14.9959C19.9842 14.8098 19.4941 14.716 19 14.72Z" fill="#243141"/>
  <path d="M8.5 12C9.39002 12 10.26 11.7361 11.0001 11.2416C11.7401 10.7471 12.3169 10.0443 12.6575 9.22208C12.9981 8.39981 13.0872 7.49501 12.9135 6.6221C12.7399 5.74918 12.3113 4.94736 11.682 4.31802C11.0526 3.68868 10.2508 3.2601 9.37791 3.08647C8.50499 2.91283 7.60019 3.00195 6.77792 3.34254C5.95566 3.68314 5.25285 4.25991 4.75839 4.99994C4.26392 5.73996 4 6.60999 4 7.5C4.00264 8.69266 4.4776 9.83572 5.32094 10.6791C6.16428 11.5224 7.30734 11.9974 8.5 12ZM8.5 5C8.99445 5 9.4778 5.14662 9.88893 5.42133C10.3 5.69603 10.6205 6.08648 10.8097 6.54329C10.9989 7.00011 11.0484 7.50278 10.952 7.98773C10.8555 8.47268 10.6174 8.91814 10.2678 9.26777C9.91814 9.6174 9.47268 9.8555 8.98773 9.95197C8.50277 10.0484 8.00011 9.99892 7.54329 9.8097C7.08648 9.62048 6.69603 9.30005 6.42133 8.88893C6.14662 8.4778 6 7.99446 6 7.5C6 6.83696 6.26339 6.20108 6.73223 5.73223C7.20107 5.26339 7.83696 5 8.5 5Z"/>
  <path d="M10 13H7C5.4087 13 3.88258 13.6321 2.75736 14.7574C1.63214 15.8826 1 17.4087 1 19C1 19.2652 1.10536 19.5196 1.29289 19.7071C1.48043 19.8946 1.73478 20 2 20H15C15.2652 20 15.5196 19.8946 15.7071 19.7071C15.8946 19.5196 16 19.2652 16 19C16 17.4087 15.3679 15.8826 14.2426 14.7574C13.1174 13.6321 11.5913 13 10 13ZM3.13 18C3.35157 17.1419 3.85186 16.3816 4.55231 15.8386C5.25277 15.2956 6.11373 15.0007 7 15H10C10.8863 15.0007 11.7472 15.2956 12.4477 15.8386C13.1481 16.3816 13.6484 17.1419 13.87 18H3.13Z"/>
</svg>
