<svg width="24" height="24" viewBox="0 0 24 24" xmlns="http://www.w3.org/2000/svg">
  <path d="M11.5 12C12.39 12 13.26 11.7361 14.0001 11.2416C14.7401 10.7471 15.3169 10.0443 15.6575 9.22208C15.9981 8.39981 16.0872 7.49501 15.9135 6.6221C15.7399 5.74918 15.3113 4.94736 14.682 4.31802C14.0526 3.68869 13.2508 3.2601 12.3779 3.08647C11.505 2.91284 10.6002 3.00195 9.77792 3.34254C8.95566 3.68314 8.25285 4.25991 7.75839 4.99994C7.26392 5.73996 7 6.60999 7 7.5C7.00264 8.69267 7.4776 9.83572 8.32094 10.6791C9.16428 11.5224 10.3073 11.9974 11.5 12ZM11.5 5C11.9945 5 12.4778 5.14663 12.8889 5.42133C13.3 5.69603 13.6205 6.08648 13.8097 6.54329C13.9989 7.00011 14.0484 7.50278 13.952 7.98773C13.8555 8.47268 13.6174 8.91814 13.2678 9.26777C12.9181 9.6174 12.4727 9.8555 11.9877 9.95197C11.5028 10.0484 11.0001 9.99892 10.5433 9.8097C10.0865 9.62048 9.69603 9.30005 9.42133 8.88893C9.14662 8.47781 9 7.99446 9 7.5C9 6.83696 9.26339 6.20108 9.73223 5.73224C10.2011 5.26339 10.837 5 11.5 5Z"/>
  <path d="M13 13H10C8.4087 13 6.88258 13.6321 5.75736 14.7574C4.63214 15.8826 4 17.4087 4 19C4 19.2652 4.10536 19.5196 4.29289 19.7071C4.48043 19.8946 4.73478 20 5 20H18C18.2652 20 18.5196 19.8946 18.7071 19.7071C18.8946 19.5196 19 19.2652 19 19C19 17.4087 18.3679 15.8826 17.2426 14.7574C16.1174 13.6321 14.5913 13 13 13ZM6.13 18C6.35157 17.1419 6.85186 16.3816 7.55231 15.8386C8.25277 15.2956 9.11373 15.0007 10 15H13C13.8863 15.0007 14.7472 15.2956 15.4477 15.8386C16.1481 16.3816 16.6484 17.1419 16.87 18H6.13Z"/>
  <path d="M21 4.41L21.71 3.71C21.8983 3.5217 22.0041 3.2663 22.0041 3C22.0041 2.7337 21.8983 2.47831 21.71 2.29C21.5217 2.1017 21.2663 1.99591 21 1.99591C20.7337 1.99591 20.4783 2.1017 20.29 2.29L19.59 3L18.88 2.29C18.7868 2.19676 18.6761 2.1228 18.5542 2.07234C18.4324 2.02188 18.3019 1.99591 18.17 1.99591C18.0381 1.99591 17.9076 2.02188 17.7858 2.07234C17.6639 2.1228 17.5532 2.19676 17.46 2.29C17.3668 2.38324 17.2928 2.49393 17.2423 2.61575C17.1919 2.73758 17.1659 2.86814 17.1659 3C17.1659 3.13186 17.1919 3.26243 17.2423 3.38425C17.2928 3.50607 17.3668 3.61676 17.46 3.71L18.17 4.41L17.46 5.12C17.3663 5.21297 17.2919 5.32357 17.2411 5.44543C17.1903 5.56729 17.1642 5.69799 17.1642 5.83C17.1642 5.96201 17.1903 6.09272 17.2411 6.21458C17.2919 6.33644 17.3663 6.44704 17.46 6.54C17.5534 6.63268 17.6643 6.70601 17.7861 6.75577C17.9079 6.80554 18.0384 6.83076 18.17 6.83C18.3016 6.83076 18.4321 6.80554 18.5539 6.75577C18.6757 6.70601 18.7866 6.63268 18.88 6.54L19.59 5.83L20.29 6.54C20.383 6.63373 20.4936 6.70813 20.6154 6.75889C20.7373 6.80966 20.868 6.8358 21 6.8358C21.132 6.8358 21.2627 6.80966 21.3846 6.75889C21.5064 6.70813 21.617 6.63373 21.71 6.54C21.8037 6.44704 21.8781 6.33644 21.9289 6.21458C21.9797 6.09272 22.0058 5.96201 22.0058 5.83C22.0058 5.69799 21.9797 5.56729 21.9289 5.44543C21.8781 5.32357 21.8037 5.21297 21.71 5.12L21 4.41Z"/>
</svg>
