<svg width="24" height="24" viewBox="0 0 24 24" xmlns="http://www.w3.org/2000/svg">
  <g clip-path="url(#clip0)">
    <path d="M23.8199 14.89C22.3199 9.47 21.8899 8 21.7399 7.51C21.5709 6.36911 21.0126 5.32174 20.1597 4.54537C19.3067 3.76899 18.2116 3.31136 17.0599 3.25C16.3632 3.26189 15.6784 3.43297 15.0579 3.75015C14.4374 4.06733 13.8976 4.52221 13.4799 5.08H10.4799C10.0664 4.52746 9.53301 4.07576 8.9199 3.75882C8.3068 3.44188 7.62988 3.26792 6.93993 3.25C5.78821 3.31136 4.69312 3.76899 3.8402 4.54537C2.98728 5.32174 2.42899 6.36911 2.25993 7.51C2.10993 7.97 1.67993 9.51 0.17993 14.89C-0.157511 15.9839 -0.0786813 17.1639 0.401264 18.2031C0.88121 19.2424 1.72839 20.0676 2.77993 20.52C3.30386 20.706 3.86081 20.7807 4.41522 20.7393C4.96964 20.698 5.50936 20.5416 5.99993 20.28C6.52472 20.0127 6.98901 19.6404 7.36401 19.1863C7.73901 18.7322 8.01672 18.2059 8.17993 17.64L8.84993 15.89H15.2199L15.8199 17.54C15.9771 18.12 16.2517 18.6616 16.6267 19.1312C17.0016 19.6008 17.4691 19.9884 17.9999 20.27C18.5917 20.5829 19.2505 20.7476 19.9199 20.75C20.3632 20.7484 20.803 20.6706 21.2199 20.52C22.2715 20.0676 23.1186 19.2424 23.5986 18.2031C24.0785 17.1639 24.1574 15.9839 23.8199 14.89ZM20.4599 18.47C20.2202 18.5492 19.9666 18.5777 19.7152 18.5536C19.4639 18.5295 19.2203 18.4533 18.9999 18.33C18.7175 18.1836 18.4696 17.9785 18.273 17.7284C18.0764 17.4783 17.9355 17.189 17.8599 16.88L16.9999 14.42C16.9242 14.2139 16.7884 14.0352 16.6102 13.9068C16.432 13.7785 16.2194 13.7065 15.9999 13.7H8.05993C7.84308 13.7062 7.63279 13.7758 7.45507 13.9002C7.27735 14.0246 7.13997 14.1984 7.05993 14.4L6.05993 17C5.98206 17.283 5.84809 17.5474 5.666 17.7776C5.4839 18.0078 5.25739 18.1991 4.99993 18.34C4.78478 18.4578 4.54771 18.5301 4.30343 18.5525C4.05916 18.5749 3.8129 18.5468 3.57993 18.47C3.04965 18.1994 2.6328 17.7492 2.40383 17.1996C2.17486 16.6501 2.14867 16.0371 2.32993 15.47C3.05993 12.84 4.24993 8.54 4.32993 8.25L4.39993 8C4.39993 8 4.74076 6.72678 5.20509 6.25879C5.66942 5.79081 6.28351 5.50098 6.93993 5.44C7.36613 5.46115 7.77966 5.59192 8.14054 5.81966C8.50141 6.04739 8.79742 6.36439 8.99993 6.74C9.09787 6.90166 9.23582 7.03535 9.40047 7.12819C9.56512 7.22102 9.75091 7.26986 9.93993 7.27H14.0399C14.2323 7.27334 14.4222 7.22616 14.5907 7.13315C14.7591 7.04015 14.9002 6.90459 14.9999 6.74C15.2002 6.36041 15.497 6.04034 15.8604 5.8121C16.2238 5.58386 16.641 5.45551 17.0699 5.44C17.7246 5.50319 18.3363 5.794 18.7986 6.26178C19.2609 6.72955 19.5272 8 19.5272 8L19.5999 8.21C19.5999 8.21 20.9299 12.89 21.6599 15.52C21.832 16.0746 21.8065 16.6718 21.5877 17.2097C21.3689 17.7476 20.9703 18.193 20.4599 18.47Z"/>
    <path d="M14.8099 10.41C14.6003 10.41 14.3954 10.4722 14.221 10.5886C14.0467 10.7051 13.9109 10.8707 13.8306 11.0643C13.7504 11.258 13.7294 11.4712 13.7703 11.6768C13.8112 11.8824 13.9122 12.0713 14.0604 12.2195C14.2087 12.3678 14.3975 12.4687 14.6031 12.5096C14.8088 12.5505 15.0219 12.5295 15.2156 12.4493C15.4093 12.3691 15.5748 12.2332 15.6913 12.0589C15.8078 11.8846 15.8699 11.6796 15.8699 11.47C15.8713 11.3304 15.8448 11.192 15.792 11.0628C15.7392 10.9336 15.6611 10.8162 15.5624 10.7175C15.4638 10.6188 15.3464 10.5408 15.2172 10.488C15.0879 10.4352 14.9495 10.4087 14.8099 10.41Z"/>
    <path d="M17.5099 9.6C18.0898 9.6 18.5599 9.1299 18.5599 8.55C18.5599 7.9701 18.0898 7.5 17.5099 7.5C16.93 7.5 16.4599 7.9701 16.4599 8.55C16.4599 9.1299 16.93 9.6 17.5099 9.6Z"/>
    <path d="M7.60993 8.07001C7.21436 8.07001 6.82768 8.18731 6.49878 8.40707C6.16989 8.62683 5.91354 8.93919 5.76217 9.30464C5.61079 9.67009 5.57118 10.0722 5.64835 10.4602C5.72552 10.8481 5.91601 11.2045 6.19571 11.4842C6.47542 11.7639 6.83178 11.9544 7.21974 12.0316C7.60771 12.1087 8.00984 12.0691 8.37529 11.9178C8.74074 11.7664 9.0531 11.51 9.27287 11.1811C9.49263 10.8523 9.60992 10.4656 9.60992 10.07C9.60992 9.53957 9.39921 9.03087 9.02414 8.65579C8.64907 8.28072 8.14036 8.07001 7.60993 8.07001Z"/>
  </g>
  <defs>
    <clipPath id="clip0">
      <rect width="24" height="24" fill="white"/>
    </clipPath>
  </defs>
</svg>
