<svg width="24" height="24" viewBox="0 0 24 24" xmlns="http://www.w3.org/2000/svg">
  <path d="M12 3.00001C7.27002 3.00001 3.82002 6.86001 3.13002 10.82L2.35002 10C2.16266 9.81376 1.90921 9.70922 1.64502 9.70922C1.38084 9.70922 1.12739 9.81376 0.940024 10C0.846296 10.093 0.771902 10.2036 0.721133 10.3254C0.670364 10.4473 0.644226 10.578 0.644226 10.71C0.644226 10.842 0.670364 10.9727 0.721133 11.0946C0.771902 11.2165 0.846296 11.3271 0.940024 11.42L3.44002 14C3.53346 14.0927 3.64428 14.166 3.76612 14.2158C3.88796 14.2656 4.01842 14.2908 4.15002 14.29C4.41236 14.2889 4.66376 14.1848 4.85002 14L7.35002 11.5C7.44375 11.4071 7.51815 11.2965 7.56892 11.1746C7.61968 11.0527 7.64582 10.922 7.64582 10.79C7.64582 10.658 7.61968 10.5273 7.56892 10.4054C7.51815 10.2836 7.44375 10.173 7.35002 10.08C7.16266 9.89376 6.90921 9.78922 6.64502 9.78922C6.38084 9.78922 6.12739 9.89376 5.94002 10.08L5.17002 10.85C5.81002 8.07001 8.18003 5.00001 12 5.00001C13.8565 5.00001 15.637 5.73751 16.9498 7.05027C18.2625 8.36302 19 10.1435 19 12C19 13.8565 18.2625 15.637 16.9498 16.9498C15.637 18.2625 13.8565 19 12 19C10.4051 18.9835 8.86223 18.4305 7.62002 17.43C7.41183 17.2656 7.14684 17.1906 6.88335 17.2215C6.61986 17.2525 6.37946 17.3868 6.21502 17.595C6.05059 17.8032 5.9756 18.0682 6.00654 18.3317C6.03748 18.5952 6.17183 18.8356 6.38002 19C7.50111 19.906 8.82338 20.5294 10.2356 20.8179C11.6478 21.1063 13.1086 21.0514 14.4952 20.6577C15.8818 20.2639 17.1535 19.543 18.2033 18.5554C19.2532 17.5678 20.0505 16.3425 20.5282 14.9825C21.0059 13.6226 21.1499 12.1679 20.9483 10.7407C20.7466 9.31348 20.2051 7.95559 19.3693 6.78128C18.5335 5.60696 17.4279 4.65055 16.1455 3.99253C14.8631 3.33451 13.4414 2.99413 12 3.00001Z"/>
  <path d="M9.29002 14.71C9.38299 14.8037 9.49359 14.8781 9.61545 14.9289C9.73731 14.9797 9.86801 15.0058 10 15.0058C10.132 15.0058 10.2627 14.9797 10.3846 14.9289C10.5065 14.8781 10.6171 14.8037 10.71 14.71L12 13.41L13.29 14.71C13.383 14.8037 13.4936 14.8781 13.6154 14.9289C13.7373 14.9797 13.868 15.0058 14 15.0058C14.132 15.0058 14.2627 14.9797 14.3846 14.9289C14.5065 14.8781 14.6171 14.8037 14.71 14.71C14.8038 14.6171 14.8781 14.5065 14.9289 14.3846C14.9797 14.2627 15.0058 14.132 15.0058 14C15.0058 13.868 14.9797 13.7373 14.9289 13.6154C14.8781 13.4936 14.8038 13.383 14.71 13.29L13.41 12L14.71 10.71C14.8983 10.5217 15.0041 10.2663 15.0041 10C15.0041 9.73371 14.8983 9.47832 14.71 9.29001C14.5217 9.10171 14.2663 8.99592 14 8.99592C13.7337 8.99592 13.4783 9.10171 13.29 9.29001L12 10.59L10.71 9.29001C10.5217 9.10171 10.2663 8.99592 10 8.99592C9.73372 8.99592 9.47833 9.10171 9.29002 9.29001C9.10172 9.47832 8.99593 9.73371 8.99593 10C8.99593 10.2663 9.10172 10.5217 9.29002 10.71L10.59 12L9.29002 13.29C9.1963 13.383 9.1219 13.4936 9.07113 13.6154C9.02036 13.7373 8.99423 13.868 8.99423 14C8.99423 14.132 9.02036 14.2627 9.07113 14.3846C9.1219 14.5065 9.1963 14.6171 9.29002 14.71Z"/>
</svg>
