<svg width="24" height="24" viewBox="0 0 24 24" xmlns="http://www.w3.org/2000/svg">
  <path d="M19.5 22H16C15.3334 21.9947 14.6961 21.7255 14.2275 21.2513C13.7589 20.7772 13.4974 20.1366 13.5 19.47V16.4C13.5027 16.3317 13.4919 16.2636 13.4682 16.1994C13.4445 16.1353 13.4084 16.0765 13.362 16.0264C13.3155 15.9762 13.2597 15.9357 13.1976 15.9071C13.1354 15.8786 13.0683 15.8626 13 15.86H11C10.9317 15.8626 10.8646 15.8786 10.8025 15.9071C10.7404 15.9357 10.6845 15.9762 10.6381 16.0264C10.5916 16.0765 10.5555 16.1353 10.5318 16.1994C10.5082 16.2636 10.4973 16.3317 10.5 16.4V19.47C10.5027 20.1366 10.2411 20.7772 9.77254 21.2513C9.30399 21.7255 8.66663 21.9947 8.00002 22H4.50002C3.83341 21.9947 3.19605 21.7255 2.7275 21.2513C2.25894 20.7772 1.99735 20.1366 2.00002 19.47V10.47C2.00156 10.0822 2.0926 9.69992 2.26604 9.35302C2.43949 9.00613 2.69067 8.70395 3.00002 8.47001L10.5 2.47001C10.9375 2.12114 11.4805 1.93115 12.04 1.93115C12.5996 1.93115 13.1425 2.12114 13.58 2.47001L21.08 8.47001C21.3894 8.70395 21.6405 9.00613 21.814 9.35302C21.9874 9.69992 22.0785 10.0822 22.08 10.47V19.47C22.0815 19.8069 22.0153 20.1406 21.8855 20.4515C21.7558 20.7624 21.565 21.0441 21.3244 21.28C21.0839 21.5159 20.7985 21.7011 20.4852 21.8248C20.1718 21.9485 19.8368 22.008 19.5 22ZM11 13.86H13C13.331 13.8626 13.6581 13.9304 13.9629 14.0595C14.2676 14.1885 14.5439 14.3764 14.7761 14.6122C15.0082 14.8481 15.1917 15.1274 15.3159 15.4341C15.4401 15.7409 15.5027 16.0691 15.5 16.4V19.47C15.4973 19.5378 15.5082 19.6055 15.532 19.669C15.5558 19.7326 15.5921 19.7907 15.6387 19.8401C15.6852 19.8894 15.7412 19.929 15.8032 19.9565C15.8653 19.9839 15.9322 19.9987 16 20H19.5C19.5679 19.9987 19.6348 19.9839 19.6968 19.9565C19.7589 19.929 19.8148 19.8894 19.8614 19.8401C19.908 19.7907 19.9442 19.7326 19.968 19.669C19.9918 19.6055 20.0027 19.5378 20 19.47V10.47C19.9995 10.3882 19.9814 10.3074 19.9469 10.2332C19.9124 10.159 19.8623 10.0931 19.8 10.04L12.3 4.04001C12.2166 3.96821 12.1101 3.92872 12 3.92872C11.8899 3.92872 11.7835 3.96821 11.7 4.04001L4.20002 10.04C4.13777 10.0931 4.08769 10.159 4.05318 10.2332C4.01867 10.3074 4.00054 10.3882 4.00002 10.47V19.47C3.99735 19.5378 4.00823 19.6055 4.03204 19.669C4.05584 19.7326 4.09209 19.7907 4.13865 19.8401C4.18522 19.8894 4.24117 19.929 4.30322 19.9565C4.36527 19.9839 4.43218 19.9987 4.50002 20H8.00002C8.06786 19.9987 8.13477 19.9839 8.19682 19.9565C8.25888 19.929 8.31482 19.8894 8.36139 19.8401C8.40795 19.7907 8.4442 19.7326 8.468 19.669C8.49181 19.6055 8.50269 19.5378 8.50002 19.47V16.4C8.49738 16.0691 8.55996 15.7409 8.68417 15.4341C8.80838 15.1274 8.9918 14.8481 9.22395 14.6122C9.45609 14.3764 9.73243 14.1885 10.0372 14.0595C10.3419 13.9304 10.6691 13.8626 11 13.86Z"/>
</svg>
