<svg width="24" height="24" viewBox="0 0 24 24" xmlns="http://www.w3.org/2000/svg">
  <path d="M3.11 2C2.81561 2 2.53328 2.11695 2.32511 2.32511C2.11695 2.53328 2 2.81561 2 3.11V20.89C2 21.1844 2.11695 21.4667 2.32511 21.6749C2.53328 21.8831 2.81561 22 3.11 22C3.40439 22 3.68672 21.8831 3.89489 21.6749C4.10305 21.4667 4.22 21.1844 4.22 20.89V3.11C4.22 2.96423 4.19129 2.81989 4.13551 2.68522C4.07972 2.55055 3.99796 2.42818 3.89489 2.32511C3.79182 2.22204 3.66945 2.14028 3.53478 2.08449C3.40011 2.02871 3.25577 2 3.11 2Z"/>
  <path d="M7.56 2C7.26468 1.99999 6.98131 2.11661 6.77156 2.3245C6.5618 2.53238 6.44264 2.81469 6.44 3.11V20.89C6.46631 21.1675 6.59515 21.4252 6.80134 21.6128C7.00754 21.8003 7.27626 21.9043 7.555 21.9043C7.83374 21.9043 8.10247 21.8003 8.30866 21.6128C8.51485 21.4252 8.64369 21.1675 8.67 20.89V3.11C8.67 2.81561 8.55306 2.53328 8.34489 2.32511C8.13673 2.11695 7.85439 2 7.56 2Z"/>
  <path d="M12 2C11.7056 2 11.4233 2.11695 11.2151 2.32511C11.007 2.53328 10.89 2.81561 10.89 3.11V20.89C10.89 21.1844 11.007 21.4667 11.2151 21.6749C11.4233 21.8831 11.7056 22 12 22C12.2944 22 12.5767 21.8831 12.7849 21.6749C12.9931 21.4667 13.11 21.1844 13.11 20.89V3.11C13.11 2.81561 12.9931 2.53328 12.7849 2.32511C12.5767 2.11695 12.2944 2 12 2Z"/>
  <path d="M22 20.62L17.52 2.84001C17.4912 2.69198 17.4325 2.55138 17.3476 2.42677C17.2626 2.30217 17.1532 2.19618 17.0259 2.11528C16.8987 2.03438 16.7563 1.98025 16.6074 1.95621C16.4585 1.93217 16.3063 1.93872 16.16 1.97545C16.0138 2.01219 15.8765 2.07834 15.7567 2.16987C15.6368 2.26141 15.5369 2.3764 15.463 2.50784C15.389 2.63927 15.3427 2.7844 15.3267 2.93435C15.3107 3.0843 15.3254 3.23594 15.37 3.38001L19.81 21.16C19.8719 21.3997 20.0114 21.6121 20.2068 21.7641C20.4022 21.9161 20.6425 21.999 20.89 22C20.9797 22.0098 21.0703 22.0098 21.16 22C21.3073 21.9673 21.4465 21.9052 21.5692 21.8174C21.6919 21.7296 21.7955 21.6178 21.874 21.489C21.9524 21.3601 22.004 21.2167 22.0257 21.0673C22.0474 20.918 22.0386 20.7659 22 20.62Z"/>
</svg>
