<svg width="24" height="24" viewBox="0 0 24 24" xmlns="http://www.w3.org/2000/svg">
  <path d="M12 2C10.0222 2 8.08879 2.58649 6.4443 3.6853C4.79981 4.78412 3.51809 6.3459 2.76121 8.17317C2.00433 10.0004 1.8063 12.0111 2.19215 13.9509C2.578 15.8907 3.53041 17.6725 4.92894 19.0711C6.32746 20.4696 8.10929 21.422 10.0491 21.8079C11.9889 22.1937 13.9996 21.9957 15.8268 21.2388C17.6541 20.4819 19.2159 19.2002 20.3147 17.5557C21.4135 15.9112 22 13.9778 22 12C22 10.6868 21.7413 9.38642 21.2388 8.17317C20.7363 6.95991 19.9997 5.85752 19.0711 4.92893C18.1425 4.00035 17.0401 3.26375 15.8268 2.7612C14.6136 2.25866 13.3132 2 12 2ZM16.38 13.76C16.38 13.18 16.44 12.59 16.44 12C16.44 11.41 16.44 10.82 16.38 10.24C18.6 10.76 19.78 11.58 19.78 12C19.78 12.42 18.6 13.24 16.38 13.76ZM12 19.76C11.58 19.76 10.76 18.58 10.24 16.36C10.82 16.36 11.41 16.42 12 16.42C12.59 16.42 13.18 16.42 13.76 16.36C13.24 18.6 12.42 19.78 12 19.78V19.76ZM12 14.2C11.24 14.2 10.54 14.2 9.88 14.1C9.82 13.44 9.78 12.74 9.78 11.98C9.78 11.22 9.78 10.52 9.88 9.86C10.54 9.8 11.24 9.76 12 9.76C12.76 9.76 13.46 9.76 14.12 9.86C14.18 10.52 14.22 11.22 14.22 11.98C14.22 12.74 14.22 13.44 14.12 14.1C13.46 14.18 12.76 14.22 12 14.22V14.2ZM4.22 12C4.22 11.58 5.4 10.76 7.62 10.24C7.62 10.82 7.56 11.41 7.56 12C7.56 12.59 7.56 13.18 7.62 13.76C5.4 13.24 4.22 12.42 4.22 12ZM12 4.22C12.42 4.22 13.24 5.4 13.76 7.62C13.18 7.62 12.59 7.56 12 7.56C11.41 7.56 10.82 7.56 10.24 7.62C10.76 5.4 11.58 4.22 12 4.22ZM19.07 8.77C18.1041 8.37771 17.0981 8.09267 16.07 7.92C15.8973 6.8919 15.6123 5.88587 15.22 4.92C16.92 5.70512 18.2849 7.06999 19.07 8.77ZM8.77 4.93C8.37771 5.89587 8.09267 6.9019 7.92 7.93C6.89191 8.10267 5.88588 8.38771 4.92 8.78C5.70513 7.07999 7.06999 5.71512 8.77 4.93ZM4.93 15.23C5.89588 15.6223 6.90191 15.9073 7.93 16.08C8.10267 17.1081 8.38771 18.1141 8.78 19.08C7.07999 18.2949 5.71513 16.93 4.93 15.23ZM15.23 19.07C15.6223 18.1041 15.9073 17.0981 16.08 16.07C17.1081 15.8973 18.1141 15.6123 19.08 15.22C18.2949 16.92 16.93 18.2849 15.23 19.07Z"/>
</svg>
