<svg width="24" height="24" viewBox="0 0 24 24" xmlns="http://www.w3.org/2000/svg">
  <path d="M5.65006 17.53C4.91969 17.4174 4.24977 17.0585 3.7514 16.5128C3.25303 15.9672 2.95617 15.2676 2.91006 14.53C2.85187 14.0587 2.81849 13.5848 2.81006 13.11V6.34H5.24006V12.43C5.24006 13.05 5.34006 13.69 5.34006 14.32C5.37726 14.5891 5.49143 14.8418 5.66883 15.0476C5.84624 15.2534 6.07933 15.4035 6.34006 15.48C6.83738 15.6203 7.35376 15.681 7.87006 15.66H10.5901V17.66H7.00006C6.54681 17.6627 6.09446 17.6192 5.65006 17.53ZM11.9901 17.66V11C12.0375 10.3566 12.1514 9.71989 12.3301 9.1C12.4872 8.43035 12.842 7.82341 13.3484 7.35797C13.8549 6.89254 14.4896 6.59013 15.1701 6.49C15.7472 6.3801 16.3327 6.31988 16.9201 6.31H21.1901V8.31H17.0001C16.5862 8.32047 16.1743 8.3707 15.7701 8.46C15.4018 8.51346 15.0656 8.69932 14.8244 8.98279C14.5833 9.26626 14.4538 9.6279 14.4601 10C14.4401 10.333 14.4401 10.667 14.4601 11H21.1101V13H14.3801V17.69L11.9901 17.66Z"/>
</svg>
