<svg width="24" height="24" viewBox="0 0 24 24" xmlns="http://www.w3.org/2000/svg">
  <path d="M18.86 4H5.14001C4.5609 4.01313 4.01059 4.25515 3.60951 4.67309C3.20844 5.09103 2.98928 5.65085 3.00001 6.23V21C3.00017 21.1963 3.0581 21.3882 3.16657 21.5518C3.27504 21.7154 3.42926 21.8434 3.61001 21.92C3.73333 21.9725 3.86596 21.9997 4.00001 22C4.25748 21.999 4.50463 21.8987 4.69001 21.72L8.26001 18.31H18.86C19.4391 18.2969 19.9894 18.0549 20.3905 17.6369C20.7916 17.219 21.0107 16.6592 21 16.08V6.23C21.0107 5.65085 20.7916 5.09103 20.3905 4.67309C19.9894 4.25515 19.4391 4.01313 18.86 4ZM19 16.08C19 16.22 18.92 16.31 18.86 16.31H7.86001C7.60392 16.3083 7.35695 16.405 7.17001 16.58L5.00001 18.66V6.23C5.00001 6.09 5.08001 6 5.14001 6H18.86C18.92 6 19 6.09 19 6.23V16.08Z"/>
  <path d="M16 8H8.00001C7.73479 8 7.48044 8.10536 7.2929 8.29289C7.10537 8.48043 7.00001 8.73478 7.00001 9C7.00001 9.26522 7.10537 9.51957 7.2929 9.70711C7.48044 9.89464 7.73479 10 8.00001 10H16C16.2652 10 16.5196 9.89464 16.7071 9.70711C16.8947 9.51957 17 9.26522 17 9C17 8.73478 16.8947 8.48043 16.7071 8.29289C16.5196 8.10536 16.2652 8 16 8Z"/>
  <path d="M12 12H8.00001C7.73479 12 7.48044 12.1054 7.2929 12.2929C7.10537 12.4804 7.00001 12.7348 7.00001 13C7.00001 13.2652 7.10537 13.5196 7.2929 13.7071C7.48044 13.8946 7.73479 14 8.00001 14H12C12.2652 14 12.5196 13.8946 12.7071 13.7071C12.8947 13.5196 13 13.2652 13 13C13 12.7348 12.8947 12.4804 12.7071 12.2929C12.5196 12.1054 12.2652 12 12 12Z" fill="#243141"/>
</svg>
