<svg width="24" height="24" viewBox="0 0 24 24" xmlns="http://www.w3.org/2000/svg">
  <path d="M20.7141 19.29L4.71409 3.29C4.52579 3.1017 4.27039 2.99591 4.00409 2.99591C3.73779 2.99591 3.4824 3.1017 3.29409 3.29C3.10579 3.4783 3 3.7337 3 4C3 4.2663 3.10579 4.5217 3.29409 4.71L4.00409 5.41V20C4.00409 20.5304 4.21481 21.0391 4.58988 21.4142C4.96495 21.7893 5.47366 22 6.00409 22H18.0041C18.3565 22.0014 18.703 21.9096 19.0086 21.734C19.3142 21.5584 19.5679 21.3052 19.7441 21C19.8305 21.0095 19.9177 21.0095 20.0041 21C20.1357 21.0008 20.2662 20.9755 20.388 20.9258C20.5098 20.876 20.6206 20.8027 20.7141 20.71C20.8078 20.617 20.8822 20.5064 20.933 20.3846C20.9838 20.2627 21.0099 20.132 21.0099 20C21.0099 19.868 20.9838 19.7373 20.933 19.6154C20.8822 19.4936 20.8078 19.383 20.7141 19.29ZM6.00409 20V7.42L10.5941 12H9.00409C8.73887 12 8.48452 12.1054 8.29698 12.2929C8.10945 12.4804 8.00409 12.7348 8.00409 13C8.00409 13.2652 8.10945 13.5196 8.29698 13.7071C8.48452 13.8946 8.73887 14 9.00409 14H12.5941L14.5941 16H9.00409C8.73887 16 8.48452 16.1054 8.29698 16.2929C8.10945 16.4804 8.00409 16.7348 8.00409 17C8.00409 17.2652 8.10945 17.5196 8.29698 17.7071C8.48452 17.8946 8.73887 18 9.00409 18H15.0041C15.2079 17.9979 15.4062 17.9335 15.5724 17.8156C15.7386 17.6976 15.8648 17.5317 15.9341 17.34L18.0041 19.4V20H6.00409Z"/>
  <path d="M7.41409 4H14.0041V7C14.0041 7.26522 14.1094 7.51957 14.297 7.70711C14.4845 7.89464 14.7389 8 15.0041 8H18.0041V14.58L20.0041 16.58V7C20.0041 7 20.0041 7 20.0041 6.94C19.9937 6.84813 19.9736 6.75763 19.9441 6.67V6.58C19.8938 6.4754 19.8299 6.37789 19.7541 6.29L15.7541 2.29C15.6662 2.21419 15.5687 2.15031 15.4641 2.1C15.4342 2.09576 15.4039 2.09576 15.3741 2.1L15.0641 2H6.00409C5.80341 2.00229 5.60432 2.03604 5.41409 2.1C5.51869 2.15031 5.6162 2.21419 5.70409 2.29L7.41409 4Z"/>
</svg>
