<svg width="24" height="24" viewBox="0 0 24 24" xmlns="http://www.w3.org/2000/svg">
  <path d="M11.2 21.51C9.84548 21.5161 8.50315 21.2541 7.2503 20.7392C5.99745 20.2244 4.85882 19.4668 3.89998 18.51C3.54011 18.147 3.20596 17.7594 2.89998 17.35C2.66468 17.0343 2.52777 16.6563 2.50642 16.2631C2.48507 15.87 2.58024 15.4793 2.77998 15.14C2.97584 14.7931 3.27085 14.5126 3.62718 14.3344C3.98351 14.1562 4.38493 14.0885 4.77998 14.14C6.04989 14.3169 7.34354 14.1958 8.55851 13.7861C9.77348 13.3765 10.8764 12.6897 11.78 11.78C12.6922 10.8783 13.3808 9.77555 13.7906 8.56005C14.2004 7.34456 14.3201 6.05002 14.14 4.78001C14.0885 4.38496 14.1562 3.98353 14.3344 3.6272C14.5125 3.27087 14.7931 2.97587 15.14 2.78001C15.4772 2.58097 15.8654 2.48529 16.2565 2.50485C16.6476 2.5244 17.0243 2.65832 17.34 2.89001C17.9133 3.31988 18.4426 3.80559 18.92 4.34001C20.6361 6.28298 21.5614 8.79872 21.5132 11.3906C21.4651 13.9825 20.447 16.4621 18.66 18.34C17.7141 19.3382 16.5765 20.1352 15.3152 20.6834C14.054 21.2315 12.6951 21.5195 11.32 21.53L11.2 21.51ZM4.53998 16.14C4.76894 16.4748 5.03019 16.7863 5.31998 17.07C6.1035 17.8544 7.03589 18.4743 8.06237 18.8933C9.08885 19.3123 10.1887 19.5218 11.2973 19.5097C12.406 19.4976 13.501 19.2641 14.5181 18.8228C15.5352 18.3815 16.4538 17.7414 17.22 16.94C18.6344 15.4139 19.4376 13.4205 19.4764 11.3401C19.5151 9.25962 18.7867 7.23772 17.43 5.66001C17.0427 5.229 16.614 4.83712 16.15 4.49001C16.3698 6.06783 16.2213 7.67512 15.7162 9.18598C15.2111 10.6968 14.3631 12.0703 13.2386 13.1987C12.114 14.327 10.7436 15.1798 9.23443 15.6901C7.72532 16.2004 6.11855 16.3544 4.53998 16.14Z"/>
</svg>
