<svg width="24" height="24" viewBox="0 0 24 24" xmlns="http://www.w3.org/2000/svg">
  <path fill-rule="evenodd" clip-rule="evenodd" d="M19 16.93H20C20.2652 16.93 20.5196 17.0354 20.7071 17.2229C20.8946 17.4104 21 17.6648 21 17.93C21 18.1952 20.8946 18.4496 20.7071 18.6371C20.5196 18.8246 20.2652 18.93 20 18.93H18.36C18.2453 18.9753 18.1233 18.9991 18 19H6C5.8936 18.9933 5.78894 18.9697 5.69 18.93H4C3.73478 18.93 3.48043 18.8246 3.29289 18.6371C3.10536 18.4496 3 18.1952 3 17.93C3 17.6648 3.10536 17.4104 3.29289 17.2229C3.48043 17.0354 3.73478 16.93 4 16.93H5V9.46C5.00915 7.78332 5.61983 6.16563 6.72096 4.90117C7.82208 3.63672 9.34049 2.8095 11 2.57V2C11 1.73478 11.1054 1.48043 11.2929 1.29289C11.4804 1.10536 11.7348 1 12 1C12.2652 1 12.5196 1.10536 12.7071 1.29289C12.8946 1.48043 13 1.73478 13 2V2.58C14.6578 2.81924 16.1749 3.64501 17.2758 4.90739C18.3767 6.16976 18.9885 7.78505 19 9.46V16.93ZM8.46447 5.92447C7.52678 6.86215 7 8.13392 7 9.46V16.93H17V9.46C17 8.13392 16.4732 6.86215 15.5355 5.92447C14.5979 4.98678 13.3261 4.46 12 4.46C10.6739 4.46 9.40215 4.98678 8.46447 5.92447Z"/>
  <path d="M13.8764 21.7944C13.3625 22.2581 12.6922 22.5102 12.0001 22.5C11.3235 22.4878 10.6754 22.2256 10.1806 21.764C9.68574 21.3025 9.37923 20.6741 9.32007 20H14.7701C14.7095 20.6895 14.3902 21.3306 13.8764 21.7944Z"/>
</svg>
