<svg width="24" height="24" viewBox="0 0 24 24" xmlns="http://www.w3.org/2000/svg">
  <path d="M11.9999 12.05C12.7889 12.0499 13.5603 11.8165 14.2169 11.3792C14.8736 10.9418 15.3863 10.32 15.6904 9.59205C15.9946 8.86405 16.0767 8.06236 15.9263 7.28784C15.776 6.51331 15.4 5.80053 14.8456 5.23918C14.2911 4.67783 13.5831 4.29298 12.8105 4.13304C12.0379 3.9731 11.2353 4.04521 10.5035 4.34031C9.77182 4.63541 9.14371 5.14031 8.69823 5.7915C8.25276 6.44268 8.0098 7.21107 7.99994 7.99999C7.99332 8.52947 8.0919 9.05499 8.28995 9.54608C8.488 10.0372 8.78159 10.484 9.15369 10.8608C9.52578 11.2375 9.96898 11.5367 10.4576 11.7408C10.9462 11.9449 11.4704 12.05 11.9999 12.05ZM11.9999 6.04999C12.3955 6.04999 12.7822 6.16729 13.1111 6.38705C13.44 6.60681 13.6963 6.91917 13.8477 7.28462C13.9991 7.65007 14.0387 8.05221 13.9615 8.44017C13.8843 8.82813 13.6939 9.1845 13.4142 9.4642C13.1344 9.74391 12.7781 9.93439 12.3901 10.0116C12.0022 10.0887 11.6 10.0491 11.2346 9.89775C10.8691 9.74637 10.5568 9.49003 10.337 9.16113C10.1172 8.83223 9.99994 8.44555 9.99994 8.04999C10.0026 7.52129 10.2145 7.01515 10.5893 6.64224C10.964 6.26932 11.4712 6.05998 11.9999 6.05999V6.04999ZM16.8499 12.58C16.6099 12.12 15.9499 11.74 15.0799 12.41C14.158 12.9919 13.0901 13.3008 11.9999 13.3008C10.9097 13.3008 9.84183 12.9919 8.91994 12.41C8.04994 11.74 7.38994 12.12 7.14994 12.58C6.73994 13.39 7.14994 13.78 8.25994 14.43C9.16841 14.919 10.1707 15.2088 11.1999 15.28L10.5299 15.92L8.04994 18.32C7.96164 18.4057 7.89145 18.5083 7.84351 18.6217C7.79558 18.7351 7.77088 18.8569 7.77088 18.98C7.77088 19.1031 7.79558 19.2249 7.84351 19.3383C7.89145 19.4516 7.96164 19.5542 8.04994 19.64L8.16994 19.75C8.35486 19.9215 8.59774 20.0168 8.84994 20.0168C9.10214 20.0168 9.34503 19.9215 9.52994 19.75L11.9999 17.36L14.4799 19.75C14.6649 19.9215 14.9077 20.0168 15.1599 20.0168C15.4121 20.0168 15.655 19.9215 15.8399 19.75L15.9599 19.64C16.0495 19.555 16.1208 19.4526 16.1696 19.3391C16.2183 19.2257 16.2434 19.1035 16.2434 18.98C16.2434 18.8565 16.2183 18.7343 16.1696 18.6208C16.1208 18.5074 16.0495 18.405 15.9599 18.32L13.4799 15.93L12.8099 15.28C13.8316 15.2088 14.8266 14.9225 15.7299 14.44C16.7999 13.79 17.2599 13.4 16.8499 12.59V12.58Z"/>
</svg>
