<svg width="24" height="24" viewBox="0 0 24 24" xmlns="http://www.w3.org/2000/svg">
  <path d="M7 21C6.83586 20.9992 6.67444 20.958 6.53 20.88C6.37032 20.795 6.2367 20.6682 6.14336 20.5133C6.05003 20.3583 6.00048 20.1809 6 20V4C6.00048 3.81909 6.05003 3.64171 6.14336 3.48674C6.2367 3.33177 6.37032 3.20502 6.53 3.12C6.68202 3.03223 6.85446 2.98602 7.03 2.98602C7.20554 2.98602 7.37798 3.03223 7.53 3.12L19.53 11.12C19.6661 11.2115 19.7777 11.335 19.8548 11.4798C19.9319 11.6245 19.9722 11.786 19.9722 11.95C19.9722 12.114 19.9319 12.2755 19.8548 12.4202C19.7777 12.565 19.6661 12.6885 19.53 12.78L7.53 20.78C7.37862 20.9035 7.19437 20.98 7 21ZM8 5.87V18.13L17.2 12L8 5.87Z"/>
</svg>
