<svg width="24" height="24" viewBox="0 0 24 24" xmlns="http://www.w3.org/2000/svg">
  <path d="M9 20.13C8.67172 20.1283 8.34889 20.0459 8.06 19.89C7.74064 19.7199 7.47339 19.4664 7.28673 19.1565C7.10006 18.8466 7.00097 18.4918 7 18.13V5.86999C7.00067 5.50824 7.09944 5.15345 7.28579 4.8434C7.47214 4.53334 7.7391 4.27964 8.05823 4.1093C8.37736 3.93896 8.73672 3.85836 9.09803 3.87609C9.45934 3.89382 9.80908 4.00922 10.11 4.20999L19.3 10.33C19.5764 10.5122 19.8033 10.7601 19.9603 11.0516C20.1173 11.343 20.1995 11.6689 20.1995 12C20.1995 12.3311 20.1173 12.6569 19.9603 12.9484C19.8033 13.2399 19.5764 13.4878 19.3 13.67L10.11 19.79C9.78338 20.014 9.39603 20.1326 9 20.13ZM9 5.86999V18.13L18.19 12L9 5.86999Z"/>
</svg>
