<svg width="24" height="24" viewBox="0 0 24 24" xmlns="http://www.w3.org/2000/svg">
  <path d="M14.0001 5.99591C14.1317 5.99515 14.2621 6.02037 14.384 6.07014C14.5058 6.1199 14.6166 6.19323 14.7101 6.28591C14.8038 6.37887 14.8782 6.48947 14.929 6.61133C14.9797 6.73319 15.0059 6.8639 15.0059 6.99591C15.0059 7.12792 14.9797 7.25863 14.929 7.38049C14.8782 7.50235 14.8038 7.61294 14.7101 7.70591L10.4101 11.9959L14.7101 16.2859C14.8984 16.4742 15.0042 16.7296 15.0042 16.9959C15.0042 17.2622 14.8984 17.5176 14.7101 17.7059C14.5218 17.8942 14.2664 18 14.0001 18C13.7338 18 13.4784 17.8942 13.2901 17.7059L8.29006 12.7059C8.19633 12.6129 8.12194 12.5023 8.07117 12.3805C8.0204 12.2586 7.99426 12.1279 7.99426 11.9959C7.99426 11.8639 8.0204 11.7332 8.07117 11.6113C8.12194 11.4895 8.19633 11.3789 8.29006 11.2859L13.2901 6.28591C13.3835 6.19323 13.4943 6.1199 13.6162 6.07014C13.738 6.02037 13.8685 5.99515 14.0001 5.99591Z"/>
</svg>
