<svg width="24" height="24" viewBox="0 0 24 24" xmlns="http://www.w3.org/2000/svg">
  <path d="M11.25 10V14C11.25 14.1989 11.329 14.3897 11.4697 14.5303C11.6103 14.671 11.8011 14.75 12 14.75C12.1989 14.75 12.3897 14.671 12.5303 14.5303C12.671 14.3897 12.75 14.1989 12.75 14V10C12.75 9.80109 12.671 9.61032 12.5303 9.46967C12.3897 9.32902 12.1989 9.25 12 9.25C11.8011 9.25 11.6103 9.32902 11.4697 9.46967C11.329 9.61032 11.25 9.80109 11.25 10Z"/>
  <path d="M13 17C13 17.5523 12.5523 18 12 18C11.4477 18 11 17.5523 11 17C11 16.4477 11.4477 16 12 16C12.5523 16 13 16.4477 13 17Z"/>
  <path fill-rule="evenodd" clip-rule="evenodd" d="M22.8701 20.51L12.8701 2.51C12.7829 2.3561 12.6564 2.22809 12.5035 2.13903C12.3507 2.04998 12.177 2.00305 12.0001 2.00305C11.8232 2.00305 11.6494 2.04998 11.4966 2.13903C11.3438 2.22809 11.2173 2.3561 11.1301 2.51L1.13007 20.51C1.0423 20.662 0.996094 20.8345 0.996094 21.01C0.996094 21.1855 1.0423 21.358 1.13007 21.51C1.21943 21.6607 1.34684 21.7854 1.49953 21.8714C1.65223 21.9574 1.82483 22.0017 2.00007 22H22.0001C22.1736 22 22.3442 21.9548 22.4949 21.8689C22.6457 21.783 22.7716 21.6593 22.8601 21.51C22.9494 21.3589 22.9973 21.1869 22.9991 21.0113C23.0008 20.8358 22.9563 20.6629 22.8701 20.51ZM3.70007 20L12.0001 5.06L20.3001 20H3.70007Z"/>
</svg>
