<svg width="24" height="24" viewBox="0 0 24 24" fill="none" xmlns="http://www.w3.org/2000/svg">
  <path d="M19.68 7.66999L16.3 4.28999C15.726 3.74632 14.9655 3.44331 14.175 3.44331C13.3844 3.44331 12.6239 3.74632 12.05 4.28999L4.31996 12C3.75816 12.5625 3.4426 13.325 3.4426 14.12C3.4426 14.915 3.75816 15.6775 4.31996 16.24L7.69996 19.64C7.97867 19.9197 8.30985 20.1416 8.67451 20.293C9.03916 20.4444 9.43012 20.5224 9.82496 20.5224C10.2198 20.5224 10.6108 20.4444 10.9754 20.293C11.3401 20.1416 11.6713 19.9197 11.95 19.64L19.68 11.92C19.9596 11.6413 20.1816 11.3101 20.333 10.9454C20.4844 10.5808 20.5623 10.1898 20.5623 9.79499C20.5623 9.40015 20.4844 9.00919 20.333 8.64454C20.1816 8.27988 19.9596 7.9487 19.68 7.66999ZM18.26 10.5L10.53 18.23C10.3426 18.4162 10.0891 18.5208 9.82496 18.5208C9.56078 18.5208 9.30732 18.4162 9.11996 18.23L5.73996 14.85C5.64623 14.757 5.57184 14.6464 5.52107 14.5246C5.4703 14.4027 5.44416 14.272 5.44416 14.14C5.44416 14.008 5.4703 13.8773 5.52107 13.7554C5.57184 13.6336 5.64623 13.523 5.73996 13.43L13.47 5.70999C13.6573 5.52374 13.9108 5.4192 14.175 5.4192C14.4391 5.4192 14.6926 5.52374 14.88 5.70999L18.26 9.08999C18.4462 9.27735 18.5508 9.53081 18.5508 9.79499C18.5508 10.0592 18.4462 10.3126 18.26 10.5Z" fill="#243141"/>
  <path d="M8.88996 13.65C8.797 13.5563 8.6864 13.4819 8.56454 13.4311C8.44268 13.3803 8.31197 13.3542 8.17996 13.3542C8.04795 13.3542 7.91724 13.3803 7.79539 13.4311C7.67353 13.4819 7.56293 13.5563 7.46996 13.65C7.28371 13.8374 7.17917 14.0908 7.17917 14.355C7.17917 14.6192 7.28371 14.8726 7.46996 15.06L8.87996 16.47C8.9732 16.5626 9.08376 16.6359 9.20533 16.6857C9.3269 16.7356 9.4571 16.761 9.5885 16.7605C9.71989 16.7601 9.84991 16.7337 9.97113 16.683C10.0923 16.6323 10.2024 16.5582 10.295 16.465C10.3875 16.3718 10.4609 16.2612 10.5107 16.1396C10.5606 16.0181 10.586 15.8879 10.5855 15.7565C10.5851 15.6251 10.5587 15.495 10.508 15.3738C10.4573 15.2526 10.3832 15.1426 10.29 15.05L8.88996 13.65Z" fill="#243141"/>
  <path d="M4.08996 9.32999C3.80272 8.49055 3.80272 7.57943 4.08996 6.73999C4.37544 5.92676 4.92357 5.23173 5.64786 4.76456C6.37215 4.29739 7.23137 4.08468 8.08996 4.15999L7.77996 4.30999C7.62969 4.38557 7.50919 4.50946 7.43782 4.66177C7.36644 4.81408 7.34834 4.98596 7.38641 5.1498C7.42449 5.31363 7.51653 5.45991 7.64775 5.56514C7.77898 5.67037 7.94177 5.72843 8.10996 5.72999C8.22063 5.73192 8.33021 5.70795 8.42996 5.65999L10.43 4.65999C10.6104 4.57217 10.7501 4.41816 10.82 4.22999C10.8899 4.04644 10.8899 3.84355 10.82 3.65999L9.81996 1.65999C9.72823 1.49042 9.57472 1.36269 9.3913 1.30331C9.20789 1.24393 9.00864 1.25746 8.83494 1.34109C8.66123 1.42473 8.52641 1.57205 8.45844 1.75246C8.39048 1.93288 8.39461 2.13254 8.46996 2.30999L8.65996 2.70999C7.57025 2.51866 6.44799 2.67249 5.44996 3.14999C4.23977 3.71659 3.28431 4.71403 2.77023 5.94744C2.25615 7.18086 2.2204 8.56163 2.66996 9.81999C2.72142 9.96774 2.81722 10.096 2.9443 10.1873C3.07137 10.2786 3.22351 10.3284 3.37996 10.33C3.45931 10.3444 3.54061 10.3444 3.61996 10.33C3.71823 10.2977 3.80888 10.2457 3.88634 10.1771C3.9638 10.1085 4.02645 10.0249 4.07045 9.93127C4.11445 9.83765 4.13888 9.73604 4.14223 9.63264C4.14559 9.52925 4.1278 9.42627 4.08996 9.32999Z" fill="#243141"/>
  <path d="M21.33 14.17C21.2642 13.9836 21.1275 13.8307 20.9496 13.7446C20.7717 13.6584 20.567 13.646 20.38 13.71C20.1933 13.776 20.0398 13.9121 19.952 14.0895C19.8643 14.267 19.8492 14.4716 19.91 14.66C20.1995 15.5025 20.1995 16.4175 19.91 17.26C19.6198 18.0694 19.0703 18.7602 18.3469 19.225C17.6235 19.6898 16.7667 19.9025 15.91 19.83L16.22 19.69C16.3895 19.5983 16.5173 19.4447 16.5766 19.2613C16.636 19.0779 16.6225 18.8787 16.5389 18.705C16.4552 18.5313 16.3079 18.3964 16.1275 18.3285C15.9471 18.2605 15.7474 18.2646 15.57 18.34L13.57 19.34C13.3895 19.4278 13.2498 19.5818 13.18 19.77C13.11 19.9535 13.11 20.1564 13.18 20.34L14.18 22.34C14.2417 22.4681 14.3382 22.5763 14.4584 22.6524C14.5786 22.7284 14.7177 22.7691 14.86 22.77C14.9704 22.7699 15.0796 22.746 15.18 22.7C15.3588 22.6136 15.4961 22.4598 15.5617 22.2724C15.6274 22.0849 15.6159 21.879 15.53 21.7L15.35 21.31C15.6374 21.3581 15.9285 21.3816 16.22 21.38C17.0841 21.3838 17.9365 21.1793 18.705 20.784C19.4734 20.3886 20.1353 19.8139 20.6346 19.1086C21.134 18.4033 21.456 17.588 21.5736 16.7318C21.6911 15.8757 21.6007 15.0038 21.31 14.19L21.33 14.17Z" fill="#243141"/>
</svg>
