<svg width="24" height="24" viewBox="0 0 24 24" xmlns="http://www.w3.org/2000/svg">
  <path d="M21.68 20.1L17.54 16C18.8287 14.3317 19.4654 12.2511 19.331 10.1473C19.1967 8.04354 18.3004 6.0608 16.81 4.57001C15.8011 3.55861 14.5582 2.81185 13.1915 2.39598C11.8249 1.9801 10.3767 1.90797 8.97545 2.18597C7.57422 2.46397 6.26326 3.08351 5.15888 3.98964C4.05449 4.89577 3.19082 6.06047 2.64449 7.38041C2.09815 8.70035 1.88603 10.1347 2.02696 11.5563C2.16789 12.9779 2.6575 14.3427 3.45236 15.5297C4.24722 16.7167 5.32275 17.6891 6.58355 18.3608C7.84435 19.0324 9.25143 19.3825 10.68 19.38C12.6095 19.3808 14.4833 18.7328 16 17.54L20.13 21.68C20.3423 21.8841 20.6254 21.9981 20.92 21.9981C21.2145 21.9981 21.4976 21.8841 21.71 21.68C21.9125 21.465 22.0227 21.1792 22.0171 20.8839C22.0115 20.5886 21.8905 20.3072 21.68 20.1ZM6.10997 15.24C5.05272 14.1837 4.39441 12.7935 4.2472 11.3063C4.1 9.81906 4.47301 8.32679 5.30269 7.08374C6.13236 5.84068 7.36737 4.92375 8.79729 4.48917C10.2272 4.05458 11.7636 4.12922 13.1446 4.70038C14.5257 5.27154 15.666 6.30388 16.3712 7.6215C17.0765 8.93913 17.3031 10.4605 17.0124 11.9265C16.7217 13.3925 15.9318 14.7123 14.7771 15.6611C13.6224 16.6099 12.1745 17.129 10.68 17.13C9.83143 17.1306 8.99109 16.9639 8.20695 16.6396C7.42282 16.3153 6.71026 15.8397 6.10997 15.24Z"/>
</svg>
