<svg width="24" height="24" viewBox="0 0 24 24" xmlns="http://www.w3.org/2000/svg">
  <path d="M21.4499 11.11L5.44995 3.11C5.25895 3.01503 5.04259 2.98361 4.83247 3.02034C4.62235 3.05708 4.42948 3.16004 4.28204 3.31418C4.1346 3.46832 4.04031 3.66558 4.01295 3.87712C3.98558 4.08867 4.02658 4.30342 4.12995 4.49L8.29995 12L4.12995 19.51C4.02532 19.6968 3.98342 19.9123 4.01043 20.1247C4.03743 20.3372 4.1319 20.5353 4.27995 20.69C4.37289 20.7875 4.48458 20.8652 4.60831 20.9185C4.73203 20.9718 4.86524 20.9995 4.99995 21C5.15682 21.0019 5.31163 20.964 5.44995 20.89L21.4499 12.89C21.6138 12.8061 21.7512 12.6786 21.8472 12.5216C21.9432 12.3645 21.994 12.1841 21.994 12C21.994 11.816 21.9432 11.6355 21.8472 11.4784C21.7512 11.3214 21.6138 11.1939 21.4499 11.11ZM7.44995 6.34L16.7599 11H9.99995L7.44995 6.34ZM9.99995 13H16.7299L7.43995 17.66L9.99995 13Z"/>
</svg>
