<svg width="24" height="24" viewBox="0 0 24 24" xmlns="http://www.w3.org/2000/svg">
  <path fill-rule="evenodd" clip-rule="evenodd" d="M9.77772 8.67412C10.4355 8.2346 11.2089 8 12 8C13.0609 8 14.0783 8.42143 14.8284 9.17157C15.5786 9.92172 16 10.9391 16 12C16 12.7911 15.7654 13.5645 15.3259 14.2223C14.8864 14.8801 14.2616 15.3928 13.5307 15.6955C12.7998 15.9983 11.9956 16.0775 11.2196 15.9231C10.4437 15.7688 9.73098 15.3878 9.17157 14.8284C8.61216 14.269 8.2312 13.5563 8.07686 12.7804C7.92252 12.0044 8.00173 11.2002 8.30448 10.4693C8.60723 9.73836 9.11992 9.11365 9.77772 8.67412ZM10.8889 13.6629C11.2178 13.8827 11.6044 14 12 14C12.5304 14 13.0391 13.7893 13.4142 13.4142C13.7893 13.0391 14 12.5304 14 12C14 11.6044 13.8827 11.2178 13.6629 10.8889C13.4432 10.56 13.1308 10.3036 12.7654 10.1522C12.3999 10.0009 11.9978 9.96126 11.6098 10.0384C11.2219 10.1156 10.8655 10.3061 10.5858 10.5858C10.3061 10.8655 10.1156 11.2219 10.0384 11.6098C9.96126 11.9978 10.0009 12.3999 10.1522 12.7654C10.3036 13.1308 10.56 13.4432 10.8889 13.6629Z"/>
  <path fill-rule="evenodd" clip-rule="evenodd" d="M17.8701 2.63001L22.8701 11.29C22.9578 11.442 23.004 11.6145 23.004 11.79C23.004 11.9655 22.9578 12.138 22.8701 12.29L17.8701 20.95C17.782 21.1026 17.6551 21.2292 17.5023 21.317C17.3495 21.4048 17.1763 21.4507 17.0001 21.45H7.00007C6.82386 21.4507 6.65059 21.4048 6.49781 21.317C6.34504 21.2292 6.21817 21.1026 6.13007 20.95L1.13007 12.29C1.0423 12.138 0.996094 11.9655 0.996094 11.79C0.996094 11.6145 1.0423 11.442 1.13007 11.29L6.13007 2.63001C6.21817 2.47741 6.34504 2.35079 6.49781 2.26299C6.65059 2.17519 6.82386 2.12931 7.00007 2.13001H17.0001C17.1763 2.12931 17.3495 2.17519 17.5023 2.26299C17.6551 2.35079 17.782 2.47741 17.8701 2.63001ZM7.58007 19.45H16.4201L20.8501 11.79L16.4201 4.13001H7.58007L3.15007 11.79L7.58007 19.45Z"/>
</svg>
