<svg width="24" height="24" viewBox="0 0 24 24" xmlns="http://www.w3.org/2000/svg">
  <path d="M18 16C17.2324 16.0029 16.4952 16.3 15.94 16.83L9 13C9.01032 12.8535 9.01032 12.7065 9 12.56L16.38 7.49C16.8596 7.8125 17.4221 7.9896 18 8C18.5933 8 19.1734 7.82405 19.6667 7.49441C20.1601 7.16477 20.5446 6.69623 20.7716 6.14805C20.9987 5.59987 21.0581 4.99667 20.9424 4.41473C20.8266 3.83279 20.5409 3.29824 20.1213 2.87868C19.7018 2.45912 19.1672 2.1734 18.5853 2.05765C18.0033 1.94189 17.4001 2.0013 16.8519 2.22836C16.3038 2.45543 15.8352 2.83994 15.5056 3.33329C15.1759 3.82664 15 4.40666 15 5C15.0048 5.30253 15.0554 5.6026 15.15 5.89L8 10.78C7.45236 10.2822 6.74005 10.0044 6 10C5.20435 10 4.44129 10.3161 3.87868 10.8787C3.31607 11.4413 3 12.2044 3 13C3 13.7957 3.31607 14.5587 3.87868 15.1213C4.44129 15.6839 5.20435 16 6 16C6.43567 15.9963 6.8653 15.8978 7.25905 15.7113C7.65279 15.5248 8.00118 15.2548 8.28 14.92L15 18.61C14.9902 18.7398 14.9902 18.8702 15 19C15 19.5933 15.1759 20.1734 15.5056 20.6667C15.8352 21.1601 16.3038 21.5446 16.8519 21.7716C17.4001 21.9987 18.0033 22.0581 18.5853 21.9424C19.1672 21.8266 19.7018 21.5409 20.1213 21.1213C20.5409 20.7018 20.8266 20.1672 20.9424 19.5853C21.0581 19.0033 20.9987 18.4001 20.7716 17.852C20.5446 17.3038 20.1601 16.8352 19.6667 16.5056C19.1734 16.1759 18.5933 16 18 16ZM18 4C18.1978 4 18.3911 4.05865 18.5556 4.16853C18.72 4.27841 18.8482 4.43459 18.9239 4.61732C18.9996 4.80004 19.0194 5.00111 18.9808 5.19509C18.9422 5.38907 18.847 5.56726 18.7071 5.70711C18.5673 5.84696 18.3891 5.9422 18.1951 5.98079C18.0011 6.01937 17.8 5.99957 17.6173 5.92388C17.4346 5.84819 17.2784 5.72002 17.1685 5.55557C17.0586 5.39112 17 5.19778 17 5C17 4.73478 17.1054 4.48043 17.2929 4.29289C17.4804 4.10536 17.7348 4 18 4ZM6 14C5.80222 14 5.60888 13.9414 5.44443 13.8315C5.27998 13.7216 5.15181 13.5654 5.07612 13.3827C5.00043 13.2 4.98063 12.9989 5.01921 12.8049C5.0578 12.6109 5.15304 12.4327 5.29289 12.2929C5.43275 12.153 5.61093 12.0578 5.80491 12.0192C5.99889 11.9806 6.19996 12.0004 6.38268 12.0761C6.56541 12.1518 6.72159 12.28 6.83147 12.4444C6.94135 12.6089 7 12.8022 7 13C7 13.2652 6.89464 13.5196 6.70711 13.7071C6.51957 13.8946 6.26522 14 6 14ZM18 20C17.8022 20 17.6089 19.9414 17.4444 19.8315C17.28 19.7216 17.1518 19.5654 17.0761 19.3827C17.0004 19.2 16.9806 18.9989 17.0192 18.8049C17.0578 18.6109 17.153 18.4327 17.2929 18.2929C17.4327 18.153 17.6109 18.0578 17.8049 18.0192C17.9989 17.9806 18.2 18.0004 18.3827 18.0761C18.5654 18.1518 18.7216 18.28 18.8315 18.4444C18.9414 18.6089 19 18.8022 19 19C19 19.2652 18.8946 19.5196 18.7071 19.7071C18.5196 19.8946 18.2652 20 18 20Z"/>
</svg>
