<svg width="24" height="24" viewBox="0 0 24 24" xmlns="http://www.w3.org/2000/svg">
  <path d="M9.02857 18.9999C15.0743 18.9999 18.3771 13.6099 18.3771 8.9433C18.3771 8.79164 18.3771 8.63997 18.3771 8.48831C19.0202 7.98077 19.5697 7.36057 20 6.65665C19.4026 6.93919 18.7669 7.12798 18.1143 7.21665C18.8099 6.76176 19.3213 6.06576 19.5543 5.25666C18.9196 5.68415 18.2152 5.99234 17.4743 6.16666C17.1795 5.80798 16.8127 5.51819 16.3986 5.3169C15.9845 5.11561 15.5329 5.00754 15.0743 5C14.191 5.03911 13.3566 5.42505 12.7454 6.07723C12.1342 6.72942 11.7935 7.59741 11.7943 8.49997C11.7971 8.77022 11.8239 9.03965 11.8743 9.30497C10.5601 9.22511 9.27821 8.85645 8.11644 8.2242C6.95466 7.59195 5.94034 6.71102 5.14286 5.64166C4.85634 6.19108 4.70716 6.80423 4.70857 7.42665C4.69769 7.9966 4.82066 8.56092 5.06721 9.07241C5.31376 9.5839 5.67672 10.0277 6.12571 10.3666C5.60217 10.3466 5.09167 10.1943 4.64 9.9233C4.61894 10.7276 4.86995 11.5147 5.35079 12.1521C5.83163 12.7896 6.51293 13.2385 7.28 13.4233C6.99781 13.5075 6.70542 13.5507 6.41143 13.5516C6.20376 13.5527 5.99666 13.5292 5.79429 13.4816C5.98501 14.1684 6.38434 14.7756 6.93477 15.2159C7.48519 15.6562 8.15829 15.9068 8.85714 15.9316C7.71879 16.9115 6.2776 17.4487 4.78857 17.4482C4.52601 17.4663 4.26256 17.4663 4 17.4482C5.48607 18.468 7.23796 19.0086 9.02857 18.9999Z"/>
</svg>
