<svg width="24" height="24" viewBox="0 0 24 24" xmlns="http://www.w3.org/2000/svg">
  <path fill-rule="evenodd" clip-rule="evenodd" d="M19.62 7.68999C19.74 7.29999 19.62 7.01999 19.1 7.01999H17.35C17.1857 7.01409 17.0238 7.06022 16.8873 7.1518C16.7509 7.24339 16.6468 7.37575 16.59 7.52999C16.0471 8.87499 15.3238 10.1399 14.44 11.29C14.03 11.72 13.85 11.86 13.62 11.86C13.39 11.86 13.35 11.72 13.35 11.32V7.67999C13.35 7.20999 13.22 6.99999 12.85 6.99999H10.1C10.0427 6.99866 9.9857 7.0088 9.93237 7.02981C9.87904 7.05082 9.83045 7.08228 9.78946 7.12235C9.74847 7.16241 9.71589 7.21026 9.69366 7.2631C9.67143 7.31593 9.65998 7.37267 9.66 7.42999C9.66 7.86999 10.29 7.97999 10.35 9.21999V11.93C10.35 12.52 10.25 12.62 10.03 12.62C9.44 12.62 8.03 10.33 7.13 7.70999C7 7.19999 6.8 6.99999 6.36 6.99999H4.59C4.08 6.99999 4 7.24999 4 7.51999C4 7.99999 4.59 10.42 6.76 13.62C7.30604 14.5769 8.07834 15.3854 9.00929 15.9747C9.94024 16.5639 11.0014 16.916 12.1 17C13.22 17 13.35 16.74 13.35 16.29V14.62C13.35 14.08 13.46 13.99 13.81 13.99C14.16 13.99 14.52 14.14 15.56 15.19C16.74 16.43 17 17 17.61 17H19.35C19.86 17 20.1 16.73 19.96 16.22C19.593 15.4236 19.0962 14.6936 18.49 14.06C18.08 13.57 17.49 13.01 17.29 12.75C17.09 12.49 17.1 12.25 17.29 11.93C17.29 11.93 19.4 8.75999 19.62 7.68999Z"/>
</svg>
